<svg xmlns="http://www.w3.org/2000/svg" width="24" height="24" viewBox="0 0 512 512"><path d="M108 64c-24 0-44 20-44 44v296c0 24 20 44 44 44h296c24 0 44-20 44-44V108c0-24-20-44-44-44H108zm236 44h44c9 0 16 8 16 16v44c0 8-8 12-16 12h-44c-8 0-16-8-16-16v-40c0-8 8-16 16-16zm-88 68a76 76 0 0 1 76 76 76 76 0 0 1-76 76 76 76 0 0 1-76-76 76 76 0 0 1 76-76zm-148 48h36.596A116 116 0 0 0 140 256a116 116 0 0 0 116 116 116 116 0 0 0 116-116 116 116 0 0 0-4.666-32H404v164c0 8-8 16-16 16H124c-8 0-16-8-16-16V224z" fill="#fff"/></svg>