<svg  xmlns="http://www.w3.org/2000/svg" viewBox="0 0 140.96 12.53"><path d="M13.25.06h.17a5.55 5.55 0 0 1 .62 0h.08q.08 0 .08.12h2.12a2.24 2.24 0 0 0 .42 0h.16a3.66 3.66 0 0 1 .54 0 .35.35 0 0 1 .17 0 .28.28 0 0 1 .12 0h.29a.41.41 0 0 1 .21 0H18.9v.13h-1.42a.39.39 0 0 0-.25.21l.34.08v.09h-.29a1 1 0 0 0-.46.21h.08V1H16.07a4.45 4.45 0 0 1-1.24.12h-.08a.08.08 0 0 0 .08.08h.5q.29 0 .29.08h.62v.11h-1a3.31 3.31 0 0 0-.46 0h-1.03a.29.29 0 0 0-.16 0q-.83 0-3 .09a.28.28 0 0 1-.12 0 .41.41 0 0 0-.21 0H8.6a.32.32 0 0 0-.16 0h-.08a1.34 1.34 0 0 0-.71 1q-.37.53-2.49 5.19a8.67 8.67 0 0 1-.37.87 1.83 1.83 0 0 1-.46.83v.08a1.14 1.14 0 0 0-.25.66v.04H4v.16q-.09 0-.09.33h-.08l-.75 1.59a.31.31 0 0 1-.17.21.07.07 0 0 1-.08-.08l.5-.87v-.13a.28.28 0 0 1-.12 0 3.57 3.57 0 0 1-.67 1.16.07.07 0 0 1-.08-.08h-.39v-.16h.09l.08-.17v-.21l.16-.42q-.11 0-.12-.16 1.54-3.55 2-4.53 0-.1 1.83-4a3.18 3.18 0 0 1 .5-1.08.23.23 0 0 0-.25-.11l-1.58.08H4.7q-1.23.04-4.7.17v-.08a.08.08 0 0 1 .08-.09h.83v-.12a.62.62 0 0 0-.62-.46V1A11.44 11.44 0 0 1 2.2.81V.73Q2 .73 2 .64V.56h.58a.34.34 0 0 0 .16 0 .32.32 0 0 0 .16 0H3 1.83L.71.65.62.43a1.45 1.45 0 0 1 .79-.12H4a.32.32 0 0 0 .16 0h.08q1.63 0 1.83-.08a.28.28 0 0 1 .12 0Q7 .23 8.64.19a.09.09 0 0 1 .08-.08l.17.08h.16a.61.61 0 0 1 .29 0 2.24 2.24 0 0 1 .42 0h2.37a8.39 8.39 0 0 0 1.12-.13zM.62 1.14h.13a.28.28 0 0 1 .12 0 1.79 1.79 0 0 1 .5-.12V1h-.25a.55.55 0 0 0-.5.14zm4.65.29H3.2q-.27 0-1.66.13a.08.08 0 0 0 .08.08H2.91a9.81 9.81 0 0 1 1.17-.12h.29a2.91 2.91 0 0 0 .67-.08.32.32 0 0 0 .16 0h.5a5.34 5.34 0 0 1 .59 0h-.17a.32.32 0 0 0-.16 0 2.13 2.13 0 0 0-.37 0h-.12zm-2.16-1v.13a.28.28 0 0 1 .12 0h-.11zm.25 10.43v.25a.28.28 0 0 0 .12-.25h-.12zm.29.25h.09v.21h-.12zm3-10.55h-.71a.35.35 0 0 0-.17 0Q4.79.6 4.2.69h-.5v.08h.21q.84 0 3.2-.12V.57zm-1 5.65v.16q.08 0 .08-.12zm.12-.29V6a.08.08 0 0 0 .13 0h-.09zm.59-1.21a.32.32 0 0 1 0 .17.07.07 0 0 0 .08-.08.08.08 0 0 0-.08-.09zm.5-1a.35.35 0 0 1 0 .17h.04v-.21zm.41-.91v.09h.08a.35.35 0 0 1 0-.17.08.08 0 0 0-.08.08zm.16-.33a.31.31 0 0 1 0 .12.31.31 0 0 1 0-.12zm.29-.71a1.81 1.81 0 0 1-.21.46v.08a.69.69 0 0 0 .29-.54h-.07zm6.43-.58h.38-.37z" fill="#fff"/><path d="M14 0a.38.38 0 0 0 .19 0 .51.51 0 0 0 .25 0 2.58 2.58 0 0 0 .43 0h.42a.38.38 0 0 0 .19 0 .38.38 0 0 0 .19 0h5.25v.15L21 .09l.53.05v.1H21.24a.44.44 0 0 0-.35.1.33.33 0 0 1 .05.15h.49a.34.34 0 0 0 .09.19 1.38 1.38 0 0 0-.49.24h-.29a.36.36 0 0 1-.15 0h-1.2a.1.1 0 0 0-.09.1 1.47 1.47 0 0 0 .34 0v.05a.22.22 0 0 1-.15.15h-.39a4 4 0 0 0-.53 0 .51.51 0 0 0-.25 0 .36.36 0 0 1-.15 0 .38.38 0 0 1-.19 0v.1h.63v.14q-1.78.05-2.78.15a.4.4 0 0 1-.15 0q-2.53.15-3.6.15a1.4 1.4 0 0 0-.68.87h-.1a.52.52 0 0 0 .1-.24 7.77 7.77 0 0 0-1.22 1.95v.1a.33.33 0 0 1 .15-.05 19.85 19.85 0 0 0 3.41.25.72.72 0 0 0 .49.1.08.08 0 0 1-.09.09h-.21v.1h.39V5h-.87v.1q.34 0 .34.19t.21.12v.09a5.73 5.73 0 0 1-1.22.15h-1.13a.47.47 0 0 0-.24 0 4.34 4.34 0 0 1-1.17.19L10 5.79l-.39.1a.37.37 0 0 0-.11-.05 2.11 2.11 0 0 0-.59.88A13.2 13.2 0 0 0 7.8 9.11l.2.05h.58a4.49 4.49 0 0 1 .68 0 3.71 3.71 0 0 1 .68 0h.1a.4.4 0 0 1 .19 0H10.57L13 9.3v.1l-.29.05a.09.09 0 0 0-.1-.1q0 .26-1.51.29H11.39a.32.32 0 0 1 .24.09h.98a.36.36 0 0 0 .15 0 1.78 1.78 0 0 0 .44.1 1.31 1.31 0 0 1 .34-.05v.1q-.16 0-.19.29a1.21 1.21 0 0 0-.54 0 .36.36 0 0 0-.15 0 .85.85 0 0 0-.53.1q0 .24-.44.24H10.32q-2.32.01-3.21.01a11.83 11.83 0 0 0-1 1.95H6v-.1a7.6 7.6 0 0 1 .78-1.51.24.24 0 0 0-.15-.2 1.23 1.23 0 0 1-.34.59h-.1a3.07 3.07 0 0 0 .15-.68 1 1 0 0 1-.73-.29v-.15l.04-.13v-.12q-.29 0-.29-.15A.76.76 0 0 1 6 9.35Q6.11 9 7.89 5.5q2-3.62 2-3.7v-.19l-.05-.15-.1.05v-.05a.86.86 0 0 1 .53-.29.65.65 0 0 1 .4-.44V.48h-.24a.36.36 0 0 1-.15 0v-.1L11 .15a2.31 2.31 0 0 1 .4-.06.35.35 0 0 1 .19.05L13.2 0h.1a6.05 6.05 0 0 0 .7 0zM6.87 8.33a3.06 3.06 0 0 0-.29.67h.15A2.48 2.48 0 0 0 7 8.33h-.13zm.13-.1a.09.09 0 0 0 .1-.1.1.1 0 0 0-.1.1zM7.85 10v.1h.39a.28.28 0 0 0 .24-.1h-.63zm.68 0v.05h.24V10h-.24zM10.09.36h.15v.1h-.16V.39zm1.07 2.48V3a.36.36 0 0 0 0 .15H11a.26.26 0 0 1 .16-.28zm-.1-2.25h.15a.09.09 0 0 0 .09-.06h-.14a.1.1 0 0 0-.1.06zm1.61-.15H13a.38.38 0 0 0 .19 0 .42.42 0 0 0 .2 0h.09q-.09 0-.09-.05a4.3 4.3 0 0 1-.72.05zm.59.93h.39-.4zm.29-.88h.15v-.1h-.06a.1.1 0 0 0-.09.1zm.15.59h.19-.2zm.09-.69v.1a2.6 2.6 0 0 1 .44 0v-.1h-.44zm.15.93v.1h.29a.09.09 0 0 0-.1-.1h-.2zm.58-.32v.07h.34V1h-.34zm.78.31v.06h.19v-.06h-.19zm1.17 0a.38.38 0 0 0 .15.15l.54-.1a.21.21 0 0 1 .19.1 1.78 1.78 0 0 1 .44 0v-.15h-1.03z" fill="#fff"/><path d="M17.09 0v.08a.75.75 0 0 1-.16.26 1.62 1.62 0 0 1 .13.56 4.53 4.53 0 0 1 .23 1.37 25.49 25.49 0 0 1 .29 2.57h.06q1.48-1.19 3.45-3A5 5 0 0 1 22.25 1v.06a.71.71 0 0 0-.26.23.06.06 0 0 1 .06.06l-.05.06a.24.24 0 0 1 .13.06.67.67 0 0 1 .22-.23h.1v.33q-.84 2-2.79 5.88l-1.49 3.38a2.06 2.06 0 0 0-.69 1.2l-.26.46v-.06a5 5 0 0 0 .46-1h-.06a.24.24 0 0 1-.1.2v-.06s.13-.36.39-1a2.19 2.19 0 0 0-.49.91v.12a.06.06 0 0 1-.13 0 7.14 7.14 0 0 1 .42-1A9.47 9.47 0 0 1 18 9.47 21.32 21.32 0 0 1 19.56 6l1.26-2.7a.25.25 0 0 0 0-.13Q19.37 4.52 17.67 6v.06a1.84 1.84 0 0 1 0 .29l-.16.06a2 2 0 0 1 .06.33h-.1a.44.44 0 0 0-.1-.39h-.15v.16a3.07 3.07 0 0 0 .1.78h-.06a2.37 2.37 0 0 1-.16-.78H17v.32l-.3-.15.13-.16v-.26a.26.26 0 0 0 0-.13v-.16a27.63 27.63 0 0 0-.29-3.19 1.19 1.19 0 0 1 0-.26q-1.33 2.87-1.75 3.9a1 1 0 0 1-.2.29v-.19a7.24 7.24 0 0 0 .42-1h-.13q-1 2.41-1.52 3.54a1.81 1.81 0 0 0-.39.36 7.24 7.24 0 0 0 .32-.94 12.61 12.61 0 0 0-.59 1.2l-.1.06h-.13a23.25 23.25 0 0 0 1.2-2.73v-.3q0 .08-.56 1.43a.29.29 0 0 1-.13.2.27.27 0 0 1 0-.1v-.16q-.08 0-.09-.13.43-.89 1.75-3.9A21.74 21.74 0 0 1 16.47.6v.13h.1a1.42 1.42 0 0 0 .32-.48.82.82 0 0 1 .2-.25zm-2.76 5.4a7 7 0 0 0 .78-1.72 6.81 6.81 0 0 0-.78 1.73zm.19 1.23v.08a.41.41 0 0 0-.06.2h-.07a.31.31 0 0 1 .13-.27zM15 5.19l-.07.19a.54.54 0 0 1 .1-.2zm.3-2.06l-.19.49a2.94 2.94 0 0 1 .19-.49zm.16.23v.13-.13zm.23-.42V3a6.57 6.57 0 0 0 .75-1.49v-.13a9.66 9.66 0 0 0-.75 1.56zm1.17 1.43v.42a4.62 4.62 0 0 0 .06.81H17q0-.63-.1-1.07a.3.3 0 0 1 0-.16zm.06 1.79v.06a.06.06 0 0 0 .06.06v-.19a.06.06 0 0 0-.05.07zm.23-2.92v.06q0 .78.06 1.89h.06q-.06-1.42-.06-1.85a.23.23 0 0 1 0-.1zm.36 2.92v.16-.1a.06.06 0 0 0 0-.06zm.16-.74v.06a.74.74 0 0 0 .33-.29v-.07a1.76 1.76 0 0 0-.33.29zM17.8 11q-.06.21-.06.23a.22.22 0 0 0 .13-.23h-.07zm.2-5.94v.09l.39-.32a11 11 0 0 0 1.43-1.37q-.93.86-1.82 1.6zm.84 2.72q-.49 1.1-.68 1.66a2.26 2.26 0 0 0 .32-.71 4.6 4.6 0 0 0 .39-.94zm-.39-3.37a.81.81 0 0 1-.16.16v.06a.5.5 0 0 1 .22-.16.06.06 0 0 0-.06-.06zm.06 0a.41.41 0 0 0 .16-.16.27.27 0 0 0-.15.12zm.2-.19a4.75 4.75 0 0 0 .81-.74 4.93 4.93 0 0 0-.81.7zm1.1-.33a.81.81 0 0 0 .36-.36 1.78 1.78 0 0 0-.35.32zm.1-.52v.03a.27.27 0 0 0 .16-.13.22.22 0 0 1-.15.06zm.16-.1a.45.45 0 0 0 .27-.27.65.65 0 0 0-.26.23zm.26.13q.59-.5.74-.65v-.13zm.23-.62v.03h.09v-.1zm.09 2.11a.58.58 0 0 1-.06.2h.06a.3.3 0 0 1 0-.16zm.43-2.57a.14.14 0 0 0 .09-.1.13.13 0 0 0-.08.07zm.39 1.14h.06a14.71 14.71 0 0 0 .65-1.66 11.17 11.17 0 0 0-.71 1.63zM29.15 0h.29v.21a1.65 1.65 0 0 1 1.15 1.32A3.1 3.1 0 0 1 30 3.24a3.07 3.07 0 0 1-1.07 1v-.08a3.6 3.6 0 0 0 .79-.83 6.3 6.3 0 0 1-1.85 1.4 16.4 16.4 0 0 1-4 1.82 13.14 13.14 0 0 0-1.43 2.75.07.07 0 0 1-.08.08V9.3l.25-.58q-.73 1.5-1.32 2.55a8.27 8.27 0 0 1-.62 1.24h-.13v-.12a2.22 2.22 0 0 0 .29-.74.11.11 0 0 1-.12-.12.48.48 0 0 0 .08-.25 2.56 2.56 0 0 0-.42.74.88.88 0 0 0-.41.53q.64-1.36 1.16-2.55a4.55 4.55 0 0 0-.62 1.2.07.07 0 0 1-.08-.08.32.32 0 0 0 0-.16h-.09a1.7 1.7 0 0 1 .38-.79v.03a1.47 1.47 0 0 0-.21.58 3.22 3.22 0 0 0 .58-1.24H21a.33.33 0 0 1-.16.29v-.08l1.61-3.29a1.61 1.61 0 0 1-.5.12v-.16a.89.89 0 0 0 .91-.7q.66-1.31 1.89-3.5-.08 0-1.81 1.07a11.78 11.78 0 0 1 1.65-1.15v-.08q-1.14.69-2.06 1.32V3.3a5.57 5.57 0 0 1 1.44-1.07.28.28 0 0 1 .12 0A7.81 7.81 0 0 0 22 3.2a.29.29 0 0 1-.17.16h-.06v-.08Q25.75 0 29.15 0zm-8 9.27v.16a.21.21 0 0 0 .05-.13h-.08zm.16.94v.08-.21q-.03.04-.03.16zM22.6 8.6a.07.07 0 0 0 .08-.08.08.08 0 0 0-.08.08zm.08-.16a.07.07 0 0 0 .08-.08.08.08 0 0 0-.08.07zm1.15-2.06v.08h.25q0-.08-.12-.08zM24 2h.12A.08.08 0 0 0 24 2zm.21 3.22a.07.07 0 0 1-.08.08v.17a.29.29 0 0 1 .08-.16zm.21 0a.57.57 0 0 0 .5-.25A7.73 7.73 0 0 0 27.25 4 4.11 4.11 0 0 0 29 2.17v-.29q0-.53-.95-.7a2.93 2.93 0 0 0-1.65.41 7.16 7.16 0 0 0-.74 1.28 14.39 14.39 0 0 0-1.29 2.43zm.12-.74a.29.29 0 0 1-.08.16.2.2 0 0 0 .12-.16zm.08-1.28v.2a1.37 1.37 0 0 0 .38-.7 3.12 3.12 0 0 0-.43.58zm0 1a.28.28 0 0 1 0 .12.31.31 0 0 1 0-.12zm0 1.69V6h.08a21.3 21.3 0 0 0 3.71-2l.29-.29h-.09a33 33 0 0 1-3.42 2 2.05 2.05 0 0 1-.57.29zm.08-1.66a1.53 1.53 0 0 1 .16-.41.49.49 0 0 0-.16.41zm.21-.45a2 2 0 0 0 .29-.62 1.47 1.47 0 0 0-.29.62zM27.83.86H28a.28.28 0 0 1 .12 0zm.7-.12h.33V.69h-.13zm.2.26a.53.53 0 0 0 .42.21.3.3 0 0 0-.29-.27.28.28 0 0 1-.13.06zm1-.12v.06a.18.18 0 0 0 .12.12V.94a.07.07 0 0 0-.08-.08zM34.34 0v.49h.09a.08.08 0 0 1 .09.09 3.37 3.37 0 0 0-.09.36h-.14V.63a1.1 1.1 0 0 0-.27.63h.13a.33.33 0 0 0 0-.18h.09q-.24.8-1.61 3.84a17.48 17.48 0 0 1-1.08 2.29.79.79 0 0 1-.31.54.63.63 0 0 1-.22.45.33.33 0 0 0 0 .18H31a.08.08 0 0 1-.09.09h-.09a4 4 0 0 1-.45.94v.09h.13a.32.32 0 0 0-.18.09v.22h-.02v-.08l-.23.27a.37.37 0 0 0 0 .18v.09h.09v.13a.2.2 0 0 1-.13.13v-.09a.43.43 0 0 0-.22.4.6.6 0 0 0 .4.18h2.42a.34.34 0 0 0 .18 0h.18a2.17 2.17 0 0 0 .4 0h1.03a.32.32 0 0 1 .13 0 17.83 17.83 0 0 0 1.89-.09l1.89-.13h.09a.36.36 0 0 1 .18 0 .32.32 0 0 1 .13 0h.76q.66-.09 3-.27v.09q-.09 0-.09.13h.03-.22a16.74 16.74 0 0 1-2 .18h-.11a.36.36 0 0 0-.18 0q-.66.09-2.3.13v.09q1.27 0 2.47-.09v.09a2.48 2.48 0 0 0-.54.09h-.72q0 .09.13.09h.26q.84 0 2.07-.18h-.22a.34.34 0 0 1-.18 0h-.71v-.08h.36L41 11h.63a1.54 1.54 0 0 1 .67 0h.22q.09 0 .09.13h.54a3.43 3.43 0 0 1 1-.13v.09a.08.08 0 0 1-.09.09H44a.33.33 0 0 1-.18 0 2.57 2.57 0 0 1-.59.13h-.61a.08.08 0 0 0 .09.09 9.67 9.67 0 0 0 1.29-.14.33.33 0 0 0 .18 0 .61.61 0 0 1-.49.31q-5.21.45-6.16.45h-1.08H38.42v.09q-.36.07-1.93.18H32.5a.08.08 0 0 1-.09-.09h.32a2.25 2.25 0 0 0 .4 0h.09a1.24 1.24 0 0 1 .32 0 .08.08 0 0 0-.09-.09.37.37 0 0 1-.18 0v.09h.22a6 6 0 0 0-1.08-.09h-1.75l-.59.09-1.12-.2a.51.51 0 0 1-.27.09.5.5 0 0 0-.31-.09l.13-.27v-.09a.63.63 0 0 1 .13-.32h-.31a.31.31 0 0 1-.18.27H28a2.42 2.42 0 0 1 .32-.63q.13 0 .13.22h.09a.08.08 0 0 0 .18-.18v-.54a7.53 7.53 0 0 0 .9-1.8 1.31 1.31 0 0 0 .22-.72.08.08 0 0 1-.09-.09 1.76 1.76 0 0 0 .41-.85q1.45-2.82 3.06-6.53a.33.33 0 0 1 0 .18h.18a.88.88 0 0 1 .31-.54V.2a4.79 4.79 0 0 1-.36.9l.18.13A2.66 2.66 0 0 0 34.25 0h.09zm-5.8 11.69a.09.09 0 0 0 .09.09v-.07h-.09zm.59-2.59a.08.08 0 0 1-.09.09V9.1zm.18 3.19H31v.09h-1.74zm.94-2.38h.09a.46.46 0 0 1-.22.36 1.7 1.7 0 0 1 .13-.36zm.9 2.43h.18v.09h-.18v-.1zm1.13-9.44V3a1.16 1.16 0 0 0 .13-.36.38.38 0 0 0-.14.25zm.22-.59v.32a.48.48 0 0 1 .13-.27v-.23a.64.64 0 0 0 .27-.54 1.27 1.27 0 0 0-.32.63.17.17 0 0 1-.08.09zm.32 9.89h.13v.09h-.14v-.09zm.13-10.88v.13a.31.31 0 0 0 .18-.18zm1 10.07h-.6 1.75a.08.08 0 0 0-.1-.05h-.72zm-.4.72h.58a.63.63 0 0 1 .32 0h-.51a.36.36 0 0 1-.18 0 .33.33 0 0 1-.18 0zm1.57-.77a3.77 3.77 0 0 1 .54 0 .32.32 0 0 1 .13 0h-.64zm.81 0h.18H36zm.4 0h.27q0-.09-.13-.09zm.86 0h.22-.19zm.32 0h.4v-.09h-.22a.08.08 0 0 0-.15.09zm1 .77h.72v.09h-.17a2.16 2.16 0 0 1-.45.09v-.09zm3.83-.27q0 .18-2.34.23h-.53v-.01q.53 0 2.88-.22zm.31 0h.23v.09h-.22v-.09zm2.07-1a.38.38 0 0 1 .27.09h.09V11h-.54v-.09a.48.48 0 0 0 .18-.06zm.67.27a.08.08 0 0 1 .09.09h-.08v-.08z" fill="#fff"/><path d="M39.59 0a.38.38 0 0 0 .19 0A.51.51 0 0 0 40 0a2.58 2.58 0 0 0 .43 0H40.77A.38.38 0 0 0 41 0a.38.38 0 0 0 .19 0h5.3v.15l.1-.05.53.05v.09H46.83a.44.44 0 0 0-.35.1.33.33 0 0 1 .05.15h.37a.34.34 0 0 0 .1.14 1.38 1.38 0 0 0-.49.24h-.29a.36.36 0 0 1-.15 0h-1.12a.1.1 0 0 0-.09.1 1.47 1.47 0 0 0 .34 0v.1a.22.22 0 0 1-.15.15h-.4a4 4 0 0 0-.53 0 .51.51 0 0 0-.25 0 .36.36 0 0 1-.15 0 .38.38 0 0 1-.19 0v.1h.63v.14q-1.78.05-2.78.15a.4.4 0 0 1-.15 0q-2.53.15-3.6.15a1.4 1.4 0 0 0-.68.87h-.1a.52.52 0 0 0 .15-.34 7.77 7.77 0 0 0-1.22 1.95v.1a.33.33 0 0 1 .15-.05 19.85 19.85 0 0 0 3.41.25.72.72 0 0 0 .49.1.08.08 0 0 1-.09.09h-.25v.1h.39V5H39v.1q.34 0 .34.19t.25.1v.11a5.73 5.73 0 0 1-1.22.15H37.2a.47.47 0 0 0-.24 0 4.34 4.34 0 0 1-1.17.19h-.19l-.39.1a.37.37 0 0 0-.15-.05 2.11 2.11 0 0 0-.59.88 13.2 13.2 0 0 0-1.12 2.38l.25.01h.54a4.49 4.49 0 0 1 .68 0 3.71 3.71 0 0 1 .68 0h.1a.4.4 0 0 1 .19 0H36.13l2.39.14v.1l-.29.05a.09.09 0 0 0-.1-.1q0 .26-1.51.29H36.91a.32.32 0 0 1 .24.09h.98a.36.36 0 0 0 .15 0 1.78 1.78 0 0 0 .44.1 1.31 1.31 0 0 1 .34-.05v.1q-.16 0-.19.29a1.21 1.21 0 0 0-.54 0 .36.36 0 0 0-.15 0 .85.85 0 0 0-.53.1q0 .24-.44.24H35.88q-2.21.05-3.12.05a11.83 11.83 0 0 0-1 1.95h-.16v-.1a7.6 7.6 0 0 1 .78-1.51.24.24 0 0 0-.15-.2 1.23 1.23 0 0 1-.34.59h-.14a3.07 3.07 0 0 0 .15-.68 1 1 0 0 1-.73-.29v-.19l.1-.15v-.1q-.29 0-.29-.15a.76.76 0 0 1 .63-.39q.05-.34 1.84-3.84 2-3.62 2-3.7v-.19l-.05-.15-.1.05v-.05a.86.86 0 0 1 .53-.29.65.65 0 0 1 .4-.44V.48L36 .44a.36.36 0 0 1-.15 0v-.1l.73-.24A2.31 2.31 0 0 1 37 .09a.35.35 0 0 1 .19.05L38.76 0h.1a6.05 6.05 0 0 0 .73 0zm-7.16 8.33a3.06 3.06 0 0 0-.29.69h.15a2.48 2.48 0 0 0 .24-.69h-.1zm.09-.09a.09.09 0 0 0 .1-.1.1.1 0 0 0-.09.09zM33.4 10v.1h.39A.28.28 0 0 0 34 10h-.6zm.68 0v.05h.25V10h-.25zM35.64.36h.15v.1h-.15V.39zm1.07 2.48V3a.36.36 0 0 0 0 .15h-.1a.26.26 0 0 1 .1-.28zM36.62.59h.15a.09.09 0 0 0 .09-.1h-.15a.1.1 0 0 0-.09.1zm1.61-.15H38.57a.38.38 0 0 0 .19 0 .42.42 0 0 0 .2 0h.09Q39 .44 39 .39a4.3 4.3 0 0 1-.77.05zm.59.93h.38-.39zm.29-.88h.15v-.1h-.06a.1.1 0 0 0-.09.1zm.15.59h.19-.2zm.09-.69v.1a2.6 2.6 0 0 1 .44 0v-.1h-.44zm.15.93v.1h.29a.09.09 0 0 0-.1-.1h-.2zm.58-.32v.07h.34V1h-.34zm.78.29v.08h.19v-.06h-.19zm1.17 0a.38.38 0 0 0 .15.15l.54-.1a.21.21 0 0 1 .19.1 1.78 1.78 0 0 1 .44 0v-.13L43 1.27h-.69zM57 .06a.94.94 0 0 1 .75.48h-.52a5.09 5.09 0 0 0-1.76.46h.05q1.53-.11 2.24-.11h.11V1h-.21-.05l-2.89.43a1 1 0 0 1-.53.16v.07L55 1.5v.11q-3.54.94-3.54 1.39A11.64 11.64 0 0 0 49 5.72a7.38 7.38 0 0 0-1.18 3.21 1.81 1.81 0 0 0 1.18 1.7 1.57 1.57 0 0 0 .38.05 6.62 6.62 0 0 0 3.52-3.15 15.67 15.67 0 0 0 .53-2.4h.07l-.11 1a1 1 0 0 0 .27-.8 1.76 1.76 0 0 1-.05-.43v-.14h.11q.05.81.05 1.13a6.84 6.84 0 0 1-.26 1.44 4.5 4.5 0 0 0 .69-1.76 3.24 3.24 0 0 1 .32-1.44l.05.05a2 2 0 0 0-.11.64v.04h.05a5.08 5.08 0 0 0 .26-1.33.89.89 0 0 1-.11-.32l.11-.05a1.19 1.19 0 0 1 .33.84 12.48 12.48 0 0 1-1.76 5.44 6.4 6.4 0 0 1-3.52 2.67 5.61 5.61 0 0 1-1.82.32q-2.14-.59-2.14-3.21a7.5 7.5 0 0 1 2.4-5.4 18.53 18.53 0 0 1 3.26-2.46A12.41 12.41 0 0 1 57 .06zM47 6a8 8 0 0 0-.8 2.72 6.36 6.36 0 0 0 .38 2.19h.05v-.12a2.74 2.74 0 0 1-.16-1.12 12.68 12.68 0 0 1 .16-1.92l-.05-.11A14 14 0 0 1 47 6zm0 2.23a7.32 7.32 0 0 0-.27 1.07 5.83 5.83 0 0 0 .32 1.61h.05v-.12a5.53 5.53 0 0 1-.1-.91v-.1a.39.39 0 0 1 0-.21.4.4 0 0 1 0-.22.34.34 0 0 1 0-.16q.11-.85.11-.91v-.05H47zm.05-1.66v.06h.05a8 8 0 0 0 1.17-1.87 4.58 4.58 0 0 0-1.18 1.81zm.35-1.22v.05a.1.1 0 0 0 .11-.11v-.05a.11.11 0 0 0-.11.11zm.05 5.29v.05a.55.55 0 0 0 .54.53h.16v-.05zm.11-2.4v.05a.09.09 0 0 0 .11-.11v-.05a.1.1 0 0 0-.1.1zm0 3.21v.05a.61.61 0 0 0 .48.26h.11v-.06a2.81 2.81 0 0 1-.58-.26zm.05-6.3Q48.79 4 49.49 3.26a1.11 1.11 0 0 0 .64-.64 9 9 0 0 0-2.35 2.24.36.36 0 0 0-.16.27zm.11 2.72a5.5 5.5 0 0 0 .53-1.18 12.35 12.35 0 0 1 2.4-3.21v-.06a4.87 4.87 0 0 0-2 2.14 6.45 6.45 0 0 0-.93 2.3zm.8 3.63h.64l.27-.05v-.07h-.8a.1.1 0 0 0-.1.11zM51 10.26v.05a4.1 4.1 0 0 0 1.13-1.12v-.05h-.02A5.7 5.7 0 0 0 51 10.26zm1.5-.43a8.87 8.87 0 0 1-1 1.07h.05a9.4 9.4 0 0 0 1-1h.05v-.07h-.06zm.32-1.28v.06h.08a1.57 1.57 0 0 0 .22-.43.58.58 0 0 0-.27.37zM54.08 7v.05h.05a9.21 9.21 0 0 0 .59-2.19A7.18 7.18 0 0 0 54.08 7zm.27-6.09V1a1 1 0 0 1 .48.05 2.11 2.11 0 0 1 .54-.24V.7z" fill="#fff"/><path d="M61.17 0a.55.55 0 0 0 .42.19h3.19a11.7 11.7 0 0 0 1.44.14h.6q.93 0 1.95.13a1.31 1.31 0 0 1 .32 0 .53.53 0 0 1 .42.14 1.21 1.21 0 0 1-.23.32v.15h.09v.09q.37 0 .37.13-1.87.09-4.77.14h-1.58.79a.09.09 0 0 1 .09.09H62.7a1.47 1.47 0 0 0-.37 0h-.42A1.93 1.93 0 0 0 61 2.78a6.38 6.38 0 0 0-.65 1.29.21.21 0 0 1 .19.09h.69a.37.37 0 0 1 .19 0 .34.34 0 0 1 .18 0 .55.55 0 0 1 .28.23h.6a.36.36 0 0 0 .14 0 3.38 3.38 0 0 0-.65 0 .32.32 0 0 0-.13 0v.1h.55a.68.68 0 0 0 .42.18h.23v.01h-.3a2.42 2.42 0 0 0-.46 0H62a7.31 7.31 0 0 0-1.06.14.09.09 0 0 0 .09.09h1.06a.64.64 0 0 0 .28 0 .08.08 0 0 1-.09.09h-.65a.2.2 0 0 0-.13.14h-.09q0-.14-.09-.14h-.2v.23h.14v.1a3.38 3.38 0 0 0-.79.09h-.09a5.5 5.5 0 0 1-.79.09.43.43 0 0 1-.23.33v-.19q-.53.79-2.13 4.12a11.41 11.41 0 0 0-.93 1.85 2 2 0 0 1-.37.6.08.08 0 0 1-.09-.09 2.48 2.48 0 0 1 .16-.46.36.36 0 0 1 0-.14.19.19 0 0 1-.23.19v-.38a1.27 1.27 0 0 0 .14-.42v-.18a1.25 1.25 0 0 1-.46.32v-.18a1.28 1.28 0 0 0 .37-.55q-.19 0-.19-.14.9-1.52 2.27-4.31V5.7h-.57a1.43 1.43 0 0 1-.37 0 1.49 1.49 0 0 1-.37 0 2.48 2.48 0 0 1-.46 0h-.42a4.27 4.27 0 0 1-1.11-.14H54a.48.48 0 0 1-.23-.28.15.15 0 0 1-.18-.14v-.09a.46.46 0 0 1-.19-.28q0-.11.23-.14v-.09q-.14 0-.14-.09h-.32a.08.08 0 0 1-.09-.09.09.09 0 0 1 .09-.09.32.32 0 0 0 .13 0q0-.28.88-.28a.36.36 0 0 1 .18 0h2.77a.33.33 0 0 0 .14 0 2.36 2.36 0 0 0 .42 0h.79a13.62 13.62 0 0 0 1.44-2.45l.37-.54V.77a.47.47 0 0 0 .41-.58.6.6 0 0 0 .47-.19zm-6.8 4.58h-.28v.1h1.15a.25.25 0 0 0-.24-.14 5.68 5.68 0 0 1-.64.04zm-.23.7v.09h.65v-.09h-.66zm1.2 0h.09a.36.36 0 0 1 .14 0h-.23zm.37 0H56.63a.08.08 0 0 0 .09-.09h-1.01zm.46 6.8v.09a.48.48 0 0 1-.18.28q.01-.32.18-.32zm.23-.51v.09a.47.47 0 0 1-.19.32.4.4 0 0 1 .19-.36zm.13-.28v.09a.08.08 0 0 1-.09.09v-.04a.09.09 0 0 1 .1-.09zm.74-1.48V10a1.27 1.27 0 0 1-.32.55v-.14a1.19 1.19 0 0 1 .33-.55zm4.54-8.38v.15h1.09a.08.08 0 0 0 .1-.05H61.82zm.38-.43h.19-.19zm2.27.65a.53.53 0 0 0 .23.09h-.38q0-.12.14-.12zM68 .93V1a4.61 4.61 0 0 0 .65.09V1H68zM75.4 0a.24.24 0 0 0 .2.15Q77 .42 77 .7a3.37 3.37 0 0 1 1 2.16q0 1.66-2.4 4.27-.81.53-2.21 1.67a16.66 16.66 0 0 1-3.33 1.82h-.2a2.06 2.06 0 0 1-1 .25 2.15 2.15 0 0 1-.44.83.09.09 0 0 1-.1-.1v-.1h-.1a.81.81 0 0 1-.59.34 2.88 2.88 0 0 0-.2.74h-.13a.68.68 0 0 1 .15-.58v-.3l-.19-.19q.64-1.66.64-1.72a25.58 25.58 0 0 0 1.37-2.6 16.28 16.28 0 0 0 1.18-2q.49-.7 1.72-2.84a.42.42 0 0 1 0-.2H72a12.79 12.79 0 0 1-1.66.69 10.62 10.62 0 0 0-1.52 1.13h-.2q-.09 0-.09-.15h-.1l-.2.15v-.1l.69-.69V3a1.31 1.31 0 0 0-.64.39h-.1v-.04a6.29 6.29 0 0 1 1.23-1.08 4.06 4.06 0 0 0 .93-.73 9.3 9.3 0 0 1 2.12-.88 5.2 5.2 0 0 1 1.66-.5A10.38 10.38 0 0 1 75.4 0zm-6 10.55v.05h.15a.33.33 0 0 1 .15-.05h-.14a.4.4 0 0 1-.15.01zm.1-.73h.15a.42.42 0 0 1 .2 0v-.09a.8.8 0 0 1-.34.1zm.35-.74l.15.07a2.73 2.73 0 0 0 1-.39v-.11h-.17a1.47 1.47 0 0 0-.97.44zm.44-.64a2.72 2.72 0 0 0 .71-.23q0 .2.1.2A8.53 8.53 0 0 0 73.58 7a.33.33 0 0 0 .05-.15h-.05a10.22 10.22 0 0 1-2.26 1.22q0 .1-.19.1A13.2 13.2 0 0 1 73 6.94a.35.35 0 0 0 .34-.25 1 1 0 0 0 .79-.45h.05H74v-.1a.77.77 0 0 1 .39.15q2-1.62 2-2.94-.15-1.92-.74-1.92a2.72 2.72 0 0 0-.49 0H75q-.83 0-.83.39a32.24 32.24 0 0 0-2 3.19 21.68 21.68 0 0 0-2 3.53zM73 3.06v.05a.26.26 0 0 0 .19-.2.22.22 0 0 0-.19.15zm1.76 3.49v.09a.36.36 0 0 1 .15 0v-.15a.33.33 0 0 1-.15.05zm.29-.2v.05h.05a.22.22 0 0 0 .15-.15v-.1a.35.35 0 0 0-.2.2zm1.28-5.15a.27.27 0 0 0 .29.15.27.27 0 0 0-.29-.15zm0 .64A6.43 6.43 0 0 1 76.58 3a.09.09 0 0 0 .1-.1v-.09a1.35 1.35 0 0 0-.34-1h-.01zm.49 2.94a.61.61 0 0 0 .25-.54V3.9a1.56 1.56 0 0 0-.25.88zm0-2.79V2a2.15 2.15 0 0 0 .1.59v-.36L77 2h-.1zm.18-.84a.1.1 0 0 0 .1.1v-.01a.09.09 0 0 0-.1-.09zm.39.44a1.24 1.24 0 0 0 .3.74.91.91 0 0 0-.28-.74zM81.25.06h.11l-.05.49h.09l.38-.49v.05a10.52 10.52 0 0 1-.87 2.44v.05H81a8.23 8.23 0 0 1 .68-1.6h.22v.09a2 2 0 0 0-.11.49l.05.11-3.46 8.5A3.84 3.84 0 0 1 77.24 12a.5.5 0 0 1-.49.38.23.23 0 0 1-.16.16h-.11a1.28 1.28 0 0 1 .22-.65v-.19a.1.1 0 0 0-.11-.11 1.37 1.37 0 0 0-.16.38h-.11a8.63 8.63 0 0 1 .87-2.44q1.5-4.13 3.89-9.2.13 0 .17-.27zM77 11.91V12h.05a1.62 1.62 0 0 1 .28-.43h-.09a.36.36 0 0 0-.24.34zm1.79-4a2.21 2.21 0 0 0-.11.32.55.55 0 0 0 .21-.32h-.08zM84.22 0v.08a.75.75 0 0 1-.16.26 1.62 1.62 0 0 1 .13.56 4.53 4.53 0 0 1 .23 1.37 25.49 25.49 0 0 1 .29 2.57h.06q1.48-1.19 3.45-3A5 5 0 0 1 89.39 1v.06a.71.71 0 0 0-.26.23.06.06 0 0 1 .06.06l-.06.09a.24.24 0 0 1 .13.06.67.67 0 0 1 .22-.23h.1v.33q-.84 2-2.79 5.88l-1.49 3.38a2.06 2.06 0 0 0-.69 1.2l-.26.46v-.06a5 5 0 0 0 .46-1h-.06a.24.24 0 0 1-.1.2v-.06s.13-.36.39-1a2.19 2.19 0 0 0-.49.91v.12a.06.06 0 0 1-.13 0 7.14 7.14 0 0 1 .42-1 9.47 9.47 0 0 1 .36-1.17A21.32 21.32 0 0 1 86.7 6L88 3.3a.25.25 0 0 0 0-.13Q86.51 4.52 84.81 6v.06a1.84 1.84 0 0 1 0 .29l-.16.06a2 2 0 0 1 .06.33h-.1a.44.44 0 0 0-.1-.39h-.15v.16a3.07 3.07 0 0 0 .1.78h-.06a2.37 2.37 0 0 1-.16-.78h-.11v.32l-.23-.19.1-.15v-.23a.26.26 0 0 0 0-.13v-.16a27.63 27.63 0 0 0-.29-3.19 1.19 1.19 0 0 1 0-.26q-1.33 2.87-1.75 3.9a1 1 0 0 1-.2.29v-.19a7.24 7.24 0 0 0 .42-1H82Q81 7.89 80.49 9a1.81 1.81 0 0 0-.39.36 7.24 7.24 0 0 0 .32-.94 12.61 12.61 0 0 0-.59 1.2l-.1.06h-.12a23.25 23.25 0 0 0 1.2-2.73v-.24q0 .08-.56 1.43a.29.29 0 0 1-.13.2.27.27 0 0 1 0-.1v-.16Q80 8.07 80 7.95q.43-.89 1.75-3.9A21.74 21.74 0 0 1 83.61.6v.13h.1A1.42 1.42 0 0 0 84 .25a.82.82 0 0 1 .22-.25zm-2.76 5.4a7 7 0 0 0 .78-1.72 6.81 6.81 0 0 0-.78 1.73zm.19 1.23v.08a.41.41 0 0 0-.06.2h-.06a.31.31 0 0 1 .13-.27zm.49-1.46l-.07.19a.54.54 0 0 1 .1-.2zm.29-2.05l-.19.49a2.94 2.94 0 0 1 .19-.49zm.17.24v.13-.13zm.23-.42V3a6.57 6.57 0 0 0 .75-1.49v-.13a9.66 9.66 0 0 0-.75 1.56zM84 4.37v.42a4.62 4.62 0 0 0 .06.81h.06q0-.63-.1-1.07a.3.3 0 0 1 0-.16zm.06 1.79v.06a.06.06 0 0 0 .06.06v-.19a.06.06 0 0 0-.06.07zm.23-2.92v.06q0 .78.06 1.89h.06q-.06-1.42-.06-1.85a.23.23 0 0 1 0-.1zm.36 2.92v.16-.1a.06.06 0 0 0 0-.06zm.16-.74v.06a.74.74 0 0 0 .33-.29v-.07a1.76 1.76 0 0 0-.33.29zm.13 5.58q-.06.21-.06.23A.22.22 0 0 0 85 11h-.06zm.23-5.94v.09l.39-.32A11 11 0 0 0 87 3.46q-1 .86-1.83 1.6zM86 7.78q-.49 1.1-.68 1.66a2.26 2.26 0 0 0 .32-.71 4.6 4.6 0 0 0 .36-.91zm-.41-3.37a.81.81 0 0 1-.16.16v.06a.5.5 0 0 1 .22-.16.06.06 0 0 0-.06-.06zm.06 0a.41.41 0 0 0 .16-.16.27.27 0 0 0-.16.12zm.2-.19a4.75 4.75 0 0 0 .81-.74 4.93 4.93 0 0 0-.81.7zM87 3.85a.81.81 0 0 0 .36-.36 1.78 1.78 0 0 0-.36.36zm.1-.52v.07a.27.27 0 0 0 .16-.13.22.22 0 0 1-.21.06zm.16-.1a.45.45 0 0 0 .21-.23.65.65 0 0 0-.25.23zm.26.13q.59-.5.74-.65v-.09zm.23-.62v.07h.09v-.1zm.05 2.12a.58.58 0 0 1-.06.2h.06a.3.3 0 0 1 0-.16zm.43-2.57a.14.14 0 0 0 .09-.1.13.13 0 0 0-.1.1zm.39 1.14h.06a14.71 14.71 0 0 0 .65-1.66 11.17 11.17 0 0 0-.72 1.66zM95.62 0a.38.38 0 0 0 .19 0 .51.51 0 0 0 .25 0 2.58 2.58 0 0 0 .43 0H96.83A.38.38 0 0 0 97 0a.38.38 0 0 0 .19 0h5.39v.15l.1-.05.53.05v.09H102.92a.44.44 0 0 0-.35.1.33.33 0 0 1 .05.15h.49a.34.34 0 0 0 .09.19 1.38 1.38 0 0 0-.49.24h-.29a.36.36 0 0 1-.15 0H101a.1.1 0 0 0-.09.1 1.47 1.47 0 0 0 .34 0v.05a.22.22 0 0 1-.15.15h-.39a4 4 0 0 0-.53 0 .51.51 0 0 0-.25 0 .36.36 0 0 1-.15 0 .38.38 0 0 1-.19 0v.1h.63v.14q-1.78.05-2.78.15a.4.4 0 0 1-.15 0q-2.53.15-3.6.15a1.4 1.4 0 0 0-.68.87h-.1a.52.52 0 0 0 .09-.34 7.77 7.77 0 0 0-1.22 1.95v.1a.33.33 0 0 1 .22-.06 19.85 19.85 0 0 0 3.41.25.72.72 0 0 0 .49.1.08.08 0 0 1-.09.09h-.29v.1h.39V5H95v.1q.34 0 .34.19t.25.1v.11a5.73 5.73 0 0 1-1.22.15h-1.14a.47.47 0 0 0-.24 0 4.34 4.34 0 0 1-1.17.19h-.19l-.39.1a.37.37 0 0 0-.15-.05 2.11 2.11 0 0 0-.59.88 13.2 13.2 0 0 0-1.12 2.38l.24.05h.54a4.49 4.49 0 0 1 .68 0 3.71 3.71 0 0 1 .68 0h.1a.4.4 0 0 1 .19 0H92.15l2.4.1v.1l-.29.05a.09.09 0 0 0-.1-.1q0 .26-1.51.29H92.94a.32.32 0 0 1 .24.09h.98a.36.36 0 0 0 .15 0 1.78 1.78 0 0 0 .44.1 1.31 1.31 0 0 1 .34-.05v.1q-.16 0-.19.29a1.21 1.21 0 0 0-.54 0 .36.36 0 0 0-.15 0 .85.85 0 0 0-.53.1q0 .24-.44.24H91.9q-2.21.05-3.12.05a11.83 11.83 0 0 0-1 1.95h-.15v-.1a7.6 7.6 0 0 1 .78-1.51.24.24 0 0 0-.15-.2 1.23 1.23 0 0 1-.34.59h-.15a3.07 3.07 0 0 0 .15-.68 1 1 0 0 1-.73-.29v-.19l.1-.15v-.1q-.29 0-.29-.15a.76.76 0 0 1 .63-.39q.06-.34 1.85-3.84 2-3.62 2-3.7v-.19l-.09-.15-.1.05v-.05a.86.86 0 0 1 .53-.29.65.65 0 0 1 .44-.44V.48h-.24a.36.36 0 0 1-.15 0v-.1l.73-.24a2.31 2.31 0 0 1 .4-.05.35.35 0 0 1 .19.05l1.6-.14h.1a6.05 6.05 0 0 0 .73 0zm-7.16 8.33a3.06 3.06 0 0 0-.29.69h.15a2.48 2.48 0 0 0 .24-.69h-.1zm.09-.09a.09.09 0 0 0 .1-.1.1.1 0 0 0-.1.09zm.88 1.76v.1h.39a.28.28 0 0 0 .24-.1h-.63zm.68 0v.05h.25V10h-.25zM91.67.36h.15v.1h-.15V.39zm1.07 2.48V3a.36.36 0 0 0 0 .15h-.14a.26.26 0 0 1 .14-.28zM92.65.59h.15a.09.09 0 0 0 .09-.1h-.15a.1.1 0 0 0-.09.1zm1.61-.15H94.6a.38.38 0 0 0 .19 0 .42.42 0 0 0 .2 0h.09Q95 .44 95 .39a4.3 4.3 0 0 1-.75.05zm.59.93h.39-.4zm.29-.88h.15v-.1h-.06a.1.1 0 0 0-.1.1zm.15.59h.19-.2zm.09-.69v.1a2.6 2.6 0 0 1 .44 0v-.1h-.45zm.15.93v.1h.29a.09.09 0 0 0-.1-.1h-.2zm.58-.32v.07h.34V1h-.34zm.78.29v.08h.19v-.06h-.2zm1.17 0a.38.38 0 0 0 .15.15l.54-.1a.21.21 0 0 1 .19.1 1.78 1.78 0 0 1 .44 0v-.13L99 1.27h-.69z" fill="#fff"/><path d="M106.08 0a.08.08 0 0 1 .08.09V.2a6.09 6.09 0 0 1-.77 1.25 41.4 41.4 0 0 0-2 3.7 13 13 0 0 0 .95-1.81l.32-.34a.21.21 0 0 0 .13.17 18.06 18.06 0 0 1 1.12-2.07 1.07 1.07 0 0 1 .35-.43 5.33 5.33 0 0 1-.77 1.29q-2.13 3.69-3.11 5.82a8.23 8.23 0 0 0 .86-1.51 1.62 1.62 0 0 0 .3-.35v.19a42.12 42.12 0 0 0-2.76 5.26 1.07 1.07 0 0 1-.52.39.55.55 0 0 1-.26.3 3.72 3.72 0 0 1 .3-.56v-.09a.29.29 0 0 0 0-.13.26.26 0 0 0-.22-.17.37.37 0 0 1-.22.17 2.9 2.9 0 0 1-.35-1.38v-.09q-.09-.47-.18-1.34v-.18q0-2-.21-4.35a21 21 0 0 0-1.32 2.77h-.12v-.09.22h.08a16 16 0 0 1-.9 1.85h-.09q-.22.26-1.9 3.79l-.13.09a.08.08 0 0 1-.09-.09 5.12 5.12 0 0 0 .43-.9h-.2a1.31 1.31 0 0 1-.3.39v-.09a9.49 9.49 0 0 0 .52-1.29l-.13-.18.56-1.41h-.09a22.66 22.66 0 0 0-1.12 2.33v-.09a26.28 26.28 0 0 1 1.85-3.57q2.49-4.89 3.19-6.08a1.09 1.09 0 0 1 .3-.35.32.32 0 0 1 0 .13.61.61 0 0 1 .34-.26 2.93 2.93 0 0 0-.26.69h.26a2.6 2.6 0 0 1 .17.82h.09v-.05h.08q.21 2.09.35 5.65v.09a3.29 3.29 0 0 1 .09.81v.26h.08q.92-2.22 2.5-5.17v.22q1.37-2.23 1.9-3.19A2.87 2.87 0 0 0 106 .07zm-9.61 7.35l-.39.86h.09l.35-.81zm.09.91a.35.35 0 0 1 0 .17.29.29 0 0 1 0-.13v-.04zm0-1.21v.22q.09 0 .09-.13v-.09zm.21.69l-.04.26a.47.47 0 0 1 .09-.22v-.03zm0-.69a.32.32 0 0 1 0 .13.29.29 0 0 1 0-.13zm2.07-4.14q-.03.21-1.12 2.09-.82 1.81-.82 1.9 1.28-2.25 2.07-4h-.09zM97 7.35a.49.49 0 0 1-.13.26v.09a.36.36 0 0 0 .17-.3zm.13-.21h.09v-.09a.08.08 0 0 0-.06.09zm.18-.39a.47.47 0 0 1-.09.22V7a.47.47 0 0 1 .09-.22zm.17-.26q.1 0 .13-.22-.07.01-.1.22zm.39-.35a.08.08 0 0 0 .13-.03.08.08 0 0 0-.11.04zm1.29-2.8a13 13 0 0 0-.64 1.55 6.48 6.48 0 0 0 .73-1.59h-.06zm.6-1.29v.26a.08.08 0 0 0 .09.09v-.34h-.06zm0 .56v.48a.08.08 0 0 0 .09.09v-.56h-.02zm0 3.88V8v-.17-1.34zm0-2.75v.39q0 .82.13 4.09h.08v-2.5q0-.71-.09-2h-.05zm.24 4.78v.17q0 .08.09 1v-.14s0-.39-.09-1zm0-4.1v.18-.18zm0 .26v2.29h.09q0-.53-.09-2.37zm0 5.13l.08.9h.09q-.09-.7-.09-.9H100zm.08-7.07v.13q.18 4.54.3 5.43h.08V7.22a3.85 3.85 0 0 0 0-.56.32.32 0 0 1 0-.13q0-1.36-.26-3.8zm.3 5.69v.44-.44zm0 1v.17a.08.08 0 0 0 .09-.09zm2.67-3.88h.13v-.3a.23.23 0 0 0 .06.34zm.3-1.77v.13a.21.21 0 0 1-.13.17V4a.22.22 0 0 1 .32-.18zm1.21-2.41v.12a15.35 15.35 0 0 1-1.17 2.2 11.29 11.29 0 0 1 .78-1.59 1.9 1.9 0 0 1 .58-.69zm-.13 2.89a1 1 0 0 1-.35.52v-.01a1.1 1.1 0 0 1 .54-.48z" fill="#fff"/><path d="M112.51 0h.09v.14a22.87 22.87 0 0 0-2.17.79V1h.09l.64-.09V1a13.61 13.61 0 0 1-1.76.69v.07h.14a2.42 2.42 0 0 1 .74-.23s-.72.37-2 1a7.73 7.73 0 0 0-1.71 1 .38.38 0 0 0 .23.23 11.28 11.28 0 0 1 2-.28h.32a1.63 1.63 0 0 1 .6.09.4.4 0 0 1 .18 0h.19q0 .23.69.23v.09a.33.33 0 0 1-.14 0 1.11 1.11 0 0 0 .51.37l.09.32v.37a4.27 4.27 0 0 1-1.44 1.76 15.31 15.31 0 0 0-1.66 1.39A21.62 21.62 0 0 1 106 10l.14-.19-.79.6v.09a.82.82 0 0 1 .42-.23 21 21 0 0 1-2.63 1.9h-.09a4.49 4.49 0 0 1-.79.42.94.94 0 0 1-.42-.28 7.23 7.23 0 0 0 1-.88v-.24a2.17 2.17 0 0 0-.93.56.08.08 0 0 1-.09-.09q1.84-1.47 4.67-3.6 1.74-1.46 2.82-2.5l.09-.42V5a.45.45 0 0 0-.4-.19 8.37 8.37 0 0 0-2.77.64v-.09a.62.62 0 0 0 .42-.23 6.37 6.37 0 0 1-.79.09.34.34 0 0 1-.23-.28 1.09 1.09 0 0 1-.74-.5q0-1.53 2.45-2.68a9.87 9.87 0 0 1 2-1 10.61 10.61 0 0 1 3.17-.76zm-10.26 12a.09.09 0 0 0 .09.09 17.72 17.72 0 0 0 3.28-2.4h-.09q-1.1.73-2.77 2a1.31 1.31 0 0 1-.51.37zm.75-1.09V11h.23a19.61 19.61 0 0 0 1.9-1.44s-.72.45-2 1.34zm2-.28a.36.36 0 0 0 .23-.18.36.36 0 0 0-.23.18zm.51-6.52v.19a.34.34 0 0 0 .23.18.64.64 0 0 1-.13-.32h-.09zm.42-.37v.14h.14a.08.08 0 0 0-.07-.14zm0 .37a.77.77 0 0 0 .6.32v-.04a1.77 1.77 0 0 0-.53-.28h-.09zm1.57-1.43h.09q.08 0 1.8-.83v-.09a6.79 6.79 0 0 0-1.88.92zM109.92 5v.13a.09.09 0 0 0 .09.09v-.09A.08.08 0 0 0 110 5zm.14-.51a1.94 1.94 0 0 1 .6.42V4.9a.89.89 0 0 0-.6-.37zm.19-.28v.09a1.92 1.92 0 0 1 .6.32q0-.37-.51-.37zm.13.83v.14a.09.09 0 0 0 .09.09v-.09a.08.08 0 0 0-.09-.09zM114.67.06h.11l-.05.49h.11l.38-.49v.05a10.52 10.52 0 0 1-.87 2.44v.05h.06a8.23 8.23 0 0 1 .7-1.57h.22v.06a2 2 0 0 0-.11.49l.05.11-3.46 8.5a3.84 3.84 0 0 1-1.14 1.81.5.5 0 0 1-.49.38.23.23 0 0 1-.16.16h-.11a1.28 1.28 0 0 1 .22-.65v-.19a.1.1 0 0 0-.11-.11 1.37 1.37 0 0 0-.16.38h-.11a8.63 8.63 0 0 1 .87-2.44q1.51-4.13 3.9-9.21.11.01.15-.26zm-4.22 11.85V12h.05a1.62 1.62 0 0 1 .28-.43h-.11a.36.36 0 0 0-.22.34zm1.79-4a2.21 2.21 0 0 0-.11.32.55.55 0 0 0 .21-.32h-.11zM125.22.06a.94.94 0 0 1 .75.48h-.48a5.09 5.09 0 0 0-1.76.43V1h.05q1.53-.11 2.24-.11h.11V1h-.21-.05l-2.87.39a1 1 0 0 1-.53.16v.11l.8-.16h.05v.11q-3.58.94-3.58 1.39a11.64 11.64 0 0 0-2.51 2.72 7.38 7.38 0 0 0-1.23 3.2 1.81 1.81 0 0 0 1.18 1.71 1.57 1.57 0 0 0 .38.05 6.62 6.62 0 0 0 3.52-3.15 15.67 15.67 0 0 0 .53-2.4h.11l-.11 1a1 1 0 0 0 .27-.8 1.76 1.76 0 0 1-.05-.43v-.14h.17v1.12a6.84 6.84 0 0 1-.26 1.44 4.5 4.5 0 0 0 .69-1.76 3.24 3.24 0 0 1 .32-1.44l.05.05a2 2 0 0 0-.11.64v.05h.05a5.08 5.08 0 0 0 .26-1.33.89.89 0 0 1-.11-.32l.11-.05a1.19 1.19 0 0 1 .32.86 12.48 12.48 0 0 1-1.76 5.44 6.4 6.4 0 0 1-3.52 2.67 5.61 5.61 0 0 1-1.82.32q-2.14-.59-2.14-3.21a7.5 7.5 0 0 1 2.4-5.4 18.53 18.53 0 0 1 3.26-2.46 12.41 12.41 0 0 1 5.48-1.32zM115.23 6a8 8 0 0 0-.8 2.72 6.36 6.36 0 0 0 .38 2.19h.05v-.12a2.74 2.74 0 0 1-.16-1.12 12.68 12.68 0 0 1 .16-1.92l-.05-.11a14 14 0 0 1 .48-1.64h-.06zm.06 2.24A7.32 7.32 0 0 0 115 9.3a5.83 5.83 0 0 0 .32 1.61h.05v-.12a5.53 5.53 0 0 1-.16-.91l.06-.11a.39.39 0 0 1-.06-.21.4.4 0 0 1 .06-.22.34.34 0 0 1-.06-.16q.11-.85.11-.91v-.04h-.05zm.05-1.66v.05h.05a8 8 0 0 0 1.17-1.87 4.58 4.58 0 0 0-1.22 1.81zm.32-1.22v.04a.1.1 0 0 0 .11-.11v-.05a.11.11 0 0 0-.11.11zm.05 5.29v.05a.55.55 0 0 0 .54.53h.16v-.06zm.11-2.4v.04a.09.09 0 0 0 .11-.11v-.05a.1.1 0 0 0-.11.1zm0 3.21v.05a.61.61 0 0 0 .48.26h.11v-.07a2.81 2.81 0 0 1-.59-.26zm.05-6.3Q117 4 117.74 3.26a1.11 1.11 0 0 0 .64-.64A9 9 0 0 0 116 4.86a.36.36 0 0 0-.12.27zm.13 2.7a5.5 5.5 0 0 0 .53-1.18 12.35 12.35 0 0 1 2.4-3.21v-.05a4.87 4.87 0 0 0-2 2.14 6.45 6.45 0 0 0-.93 2.3zm.8 3.63h.64l.27-.05v-.06h-.8a.1.1 0 0 0-.13.11zm2.51-1.23v.05a4.1 4.1 0 0 0 1.13-1.12v-.05h-.05a5.7 5.7 0 0 0-1.1 1.12zm1.5-.43a8.87 8.87 0 0 1-1 1.07h.05a9.4 9.4 0 0 0 1-1h.05v-.07h-.11zm.32-1.28v.06h.05a1.57 1.57 0 0 0 .22-.43.58.58 0 0 0-.29.37zM122.34 7v.05h.05a9.21 9.21 0 0 0 .61-2.19 7.18 7.18 0 0 0-.66 2.14zm.27-6.09V1a1 1 0 0 1 .48.05 2.11 2.11 0 0 1 .53-.21V.7zM134.44 0a.08.08 0 0 1 .08.09V.2a6.09 6.09 0 0 1-.77 1.25 41.4 41.4 0 0 0-2 3.7 13 13 0 0 0 .95-1.81L133 3a.21.21 0 0 0 .13.17 18.06 18.06 0 0 1 1.12-2.07 1.07 1.07 0 0 1 .45-.38 5.33 5.33 0 0 1-.7 1.34q-2.13 3.69-3.11 5.82a8.23 8.23 0 0 0 .86-1.51A1.62 1.62 0 0 0 132 6v.11a42.12 42.12 0 0 0-2.76 5.26 1.07 1.07 0 0 1-.52.39.55.55 0 0 1-.26.3 3.72 3.72 0 0 1 .3-.56v-.09a.29.29 0 0 0 0-.13.26.26 0 0 0-.22-.17.37.37 0 0 1-.22.17 2.9 2.9 0 0 1-.32-1.42v-.09q-.09-.47-.18-1.34v-.18q0-2-.21-4.35a21 21 0 0 0-1.47 2.89H126v-.17.22h.08a16 16 0 0 1-.9 1.85h-.09q-.22.26-1.9 3.79l-.13.09a.08.08 0 0 1-.09-.09 5.12 5.12 0 0 0 .43-.9h-.09a1.31 1.31 0 0 1-.3.39v-.09a9.49 9.49 0 0 0 .52-1.29l-.13-.18.48-1.41h-.08a22.66 22.66 0 0 0-1.12 2.33v-.09a26.28 26.28 0 0 1 1.85-3.57q2.49-4.89 3.19-6.08a1.09 1.09 0 0 1 .3-.35.32.32 0 0 1 0 .13.61.61 0 0 1 .35-.26 2.93 2.93 0 0 0-.26.69h.27a2.6 2.6 0 0 1 .17.82h.09v-.05h.08q.21 2.09.35 5.65v.09a3.29 3.29 0 0 1 .09.81v.26h.08q.92-2.22 2.5-5.17v.22q1.37-2.23 1.9-3.19a2.87 2.87 0 0 0 .77-1.17zm-9.62 7.32l-.39.86h.09l.35-.81zm.09.91a.35.35 0 0 1 0 .17.29.29 0 0 1 0-.13v-.01zm0-1.21v.22q.09 0 .09-.13v-.06zm.21.69l-.03.29a.47.47 0 0 1 .09-.22v-.03zm0-.69a.32.32 0 0 1 0 .13.29.29 0 0 1 0-.13zm2.07-4.14q-.08.21-1.16 2.11-.82 1.81-.82 1.9 1.28-2.25 2.07-4h-.09zm-1.85 4.44a.49.49 0 0 1-.13.26v.12a.36.36 0 0 0 .17-.3zm.13-.21h.09v-.06a.08.08 0 0 0-.04.09zm.18-.39a.47.47 0 0 1-.09.22V7a.47.47 0 0 1 .09-.22zm.17-.26q.1 0 .13-.22-.06.04-.08.25zm.39-.35a.08.08 0 0 0 .09-.09.08.08 0 0 0-.05.13zm1.29-2.8a13 13 0 0 0-.64 1.55 6.48 6.48 0 0 0 .73-1.59h-.09zm.6-1.29v.29a.08.08 0 0 0 .09.09v-.34h-.09zm0 .56v.51a.08.08 0 0 0 .09.09v-.56h-.09zm0 3.88V8v-.17-1.34zm0-2.75v.39q0 .82.13 4.09h.08V5.72q0-.71-.09-2h-.09zm.22 4.78v.2q0 .08.09 1v-.14s0-.39-.09-1zm0-4.1v.21-.18zm0 .26v2.32h.09q0-.53-.09-2.37zm0 5.13l.08.9h.09q-.09-.7-.09-.9h.1zm.08-7.07v.16q.18 4.54.3 5.43h.08V7.22a3.85 3.85 0 0 0 0-.56.32.32 0 0 1 0-.13q0-1.36-.26-3.8zm.3 5.69v.47-.44zm0 1v.2a.08.08 0 0 0 .3-.09zm2.67-3.88h.13v-.3a.23.23 0 0 0 .1.37zm.3-1.77v.16a.21.21 0 0 1-.13.17V4a.22.22 0 0 1 .36-.18zm1.21-2.41v.15a15.35 15.35 0 0 1-.88 2.2 11.29 11.29 0 0 1 .78-1.59 1.9 1.9 0 0 1 .33-.69zm.12 2.95a1 1 0 0 1-.35.52v-.04a1.1 1.1 0 0 1 .35-.48z" fill="#fff"/><path d="M140.87 0h.13v.14a22.87 22.87 0 0 0-2.17.79V1h.09l.64-.09V1a13.61 13.61 0 0 1-1.76.69v.07h.2a2.42 2.42 0 0 1 .74-.23s-.72.37-2 1a7.73 7.73 0 0 0-1.71 1 .38.38 0 0 0 .23.23 11.28 11.28 0 0 1 2-.28h.32a1.63 1.63 0 0 1 .6.09.4.4 0 0 1 .18 0h.19q0 .23.69.23v.09a.33.33 0 0 1-.14 0 1.11 1.11 0 0 0 .51.37l.09.32v.37a4.27 4.27 0 0 1-1.44 1.76 15.31 15.31 0 0 0-1.66 1.39 21.62 21.62 0 0 1-2.25 1.9l.14-.19-.79.6v.09a.82.82 0 0 1 .42-.23 21 21 0 0 1-2.63 1.9h-.09a4.49 4.49 0 0 1-.79.42.94.94 0 0 1-.42-.28 7.23 7.23 0 0 0 1-.88v-.24a2.17 2.17 0 0 0-.93.56.08.08 0 0 1-.09-.09Q132 10.18 134.81 8q1.74-1.46 2.82-2.5l.09-.42V5a.45.45 0 0 0-.33-.23 8.37 8.37 0 0 0-2.77.64v-.05a.62.62 0 0 0 .38-.23 6.37 6.37 0 0 1-.79.09.34.34 0 0 1-.21-.32 1.09 1.09 0 0 1-.74-.5q0-1.53 2.45-2.68a9.87 9.87 0 0 1 2-1 10.61 10.61 0 0 1 3.16-.72zm-10.26 12a.09.09 0 0 0 .09.09 17.72 17.72 0 0 0 3.3-2.33h-.09q-1.1.73-2.77 2a1.31 1.31 0 0 1-.53.3zm.79-1.15V11h.23a19.61 19.61 0 0 0 1.9-1.44s-.72.45-2 1.34zm2-.28a.36.36 0 0 0 .23-.18.36.36 0 0 0-.25.24zm.51-6.52v.25a.34.34 0 0 0 .23.18.64.64 0 0 1-.14-.37h-.09zm.42-.37v.2h.14a.08.08 0 0 0-.09-.09zm0 .37a.77.77 0 0 0 .6.32v.02a1.77 1.77 0 0 0-.55-.28h-.08zm1.57-1.43h.1q.08 0 1.8-.83v-.03a6.79 6.79 0 0 0-1.93.92zM138.28 5v.13a.09.09 0 0 0 .09.09v-.09a.08.08 0 0 0-.05-.13zm.14-.51A1.94 1.94 0 0 1 139 5v-.1a.89.89 0 0 0-.6-.37zm.19-.28v.09a1.92 1.92 0 0 1 .6.32q0-.37-.51-.37zm.13.83v.14a.09.09 0 0 0 .09.09v-.09a.08.08 0 0 0-.09-.09z" fill="#fff"/></svg>