<svg xmlns="http://www.w3.org/2000/svg" width="24" height="24" viewBox="0 0 512 512"><path d="M216.356 206.19c-.006 35.966-.01 71.93-.017 107.895l103.757-54.135-103.74-53.76zm227.81 126.586c-2.807 21.003-12.623 43.977-34.556 50.793-24.07 6.417-49.474 4.494-74.155 6.208-73.65 1.887-147.51 2.205-221.004-3.39-22.36-1.79-40.362-20.116-44.122-41.873-7.737-37.623-6.28-76.377-6.163-114.613 2.19-29.07-.177-61.036 16.866-86.323 17.12-20.522 46.09-18.612 70.27-20.316 82.043-2.855 164.347-3.8 246.25 2.47 22.362 1.786 40.36 20.117 44.125 41.873 7.605 36.67 6.24 74.45 6.23 111.734-.414 17.857-1.705 35.693-3.74 53.436z" fill="#fff"/></svg>