<svg xmlns="http://www.w3.org/2000/svg" viewBox="0 0 501.9 195.3"><path fill="#fff" d="M159.9 109.3c0 .7.1.4.1.5 0-1.1-.1-.5-.1-.5zm-1.1-10.9l.1.2-.4-1.6.3 1.4zm-2.4-10c.4 2.2 1.1 4.4 1.6 6.5-.4-2.2-.9-4.4-1.6-6.5.1.5.3.9 0 0zm-1.5-5.3c-1.5-2.7 1.2 3.7.5 1.2-.2-.4-.3-.8-.5-1.2.1.3.2.5 0 0z"/><path fill="#fff" d="M155.3 84.1c.4 1-.2-.7 0 0zm-2-4.6l.6 1.3c0-.2-1.3-3.3-.6-1.3zm-.7-1.2l.4.6c-.1-.1-.3-.4-.4-.6zm1.1 2.1L153 79l.7 1.4zm.3.9c.2.4.3.8.4 1s0 .1-.3-.6l.8 1.7c-.2-.8-.5-1.5-.9-2.1zm2.1 6.7c.1.6.3 1.3.5 1.9-.2-.6-.3-1.2-.5-1.9zm-7-16.4c.3.3.4 1 .8 1.4-.2-.4-.8-1.3-.8-1.4s0 .1 0 0zm.2.7l-.9-1.3c.8 1.1 1 1.3.9 1.3zm3.1 6c.4.8.8 1.5 1.2 2.3-.5-.9-.9-1.8-1.4-2.7l.2.4zm-6.7-11.6l.6.6-1-1.2.4.6zm-2.5-3.2c-.5-.5-.8-1.2-2-2.4l2 2.4c.5.5-.7-.9 0 0zm-3-3.2c.4.3.7.6 1 1l-1-1zm6.8 8.4c-.1-.1-.1-.3-.6-1.1.2.4.4.8.6 1.1zm-.4-.4l-.8-1.1c.3.3.6.7.8 1.1zm.4.5l-.1-.1c.1 0 .1.1.1.1zm3.5 5.7c-.5-.8-1.5-2.4-.7-.8.4.6-.1-.4.7.8zm-3.1-5l.9 1.5c-.4-.4-.7-.9-.9-1.5zm-.5-.7l.5.7c-.2-.2-.4-.4-.5-.7zm-4.8-6.4l-1.7-1.7c.7.7 1.3 1.4 1.9 2.2.2 0 .5.3-.2-.5-.3-.3.7.9 0 0zm2.3 2.9l-.1-.1.1.1z"/><path fill="#fff" d="M142.4 63c.5.6.8.9 1 1.2-.4-.4-.8-.8-1.1-1.3 0-.1 0-.1.1.1.5.6-.1-.2 0 0zm-3.9-4.5c.3.3.6.6.8.9-.3-.2-.5-.5-.8-.9.1.1 0 .1 0 0zm5.6 6.3c0 .1 0 .1.1.1-.1-.2-.1-.1-.1-.1z"/><path fill="#fff" d="M144.1 64.8c-.9-1-.8-.9.2.2-.1 0-.1-.1-.2-.2-.2-.3.1.1 0 0zm-12.5-11.3c1.3.7 2.5 1.5 3.6 2.5-.6-1-1.4-1.7-2.4-2.3-1.1-1.1 2.8 2.5 1.6 1.5-.2-.2-4.1-2.8-4.2-3 .5.4 1 .9 1.4 1.3.1 0-.4-.4 0 0z"/><path fill="#fff" d="M136.5 56.8l.5.5c-.9-.9-2-1.7-2.9-2.6.9.7 1.8 1.5 2.6 2.3l-.2-.2z"/><path fill="#fff" d="M139.2 59.4c-1.9-1.9.4.7.9 1.2-2.2-2.3.7.6-.9-1.1l1.2 1.2c-.8-1.3-1.1-1.7-1.1-1.1l-.1-.2c-.4-.4-.3-.4.1.1-.8-.8-1.6-1.6-2.4-2.3.8.8 1.6 1.5 2.3 2.2zm9.6 13c-.2-.3-.2-.4 0 0z"/><path fill="#fff" d="M148.1 71.3c.3.6.7 1.2 1.2 1.8-.7-.9-.9-2.4-1.7-3.2.1.5.2.9.5 1.4.1.1-.4-.8 0 0zm-4.2-6.3c-.6-.7-1.2-1.3-1.8-2 .3.5 1.3 2 1.8 2zm-10.1-10.6l.3.2c-.4-.3-.8-.6-1.3-.8l1 .6zm-2.6-2.1c.3-.2-.2-.4-.6-.5l.6.5zM27.3 145.9l.4.7c-.1-.3-.2-.5-.4-.7zm-2.7-5l-.1-.1c-.2-.2-.6-.1-.8.1s-.1.6.1.8c.2.2.6.1.8-.1.2-.2.2-.5 0-.7zm25.8-92.1c-1 .6-2.2 1.1-2 1.1.8-.2 1.5-.6 2-1.1zm-32.1 47c.1-.3.2-.7.2-1.1-.1.4-.2.7-.2 1.1zm.3.9l-.3 1.5.3-1.5zM48.2 168l.8.4c-1.1-.8-.6-.4-.8-.4zM98.4 38.8c-1-.2-1.8-.3-2.5-.4.8.2 1.6.4 2.5.4zM25.3 144.4c.1.2.3.4.4.6-.1-.2-.2-.4-.4-.6zM93.1 38.2c.9 0 1.9.1 2.8.3-1-.2-1.9-.3-2.8-.3zm53.6 111.2c0-.1.1-.1.1-.2s0 0-.1.2zm12.4-30c0 .4-.1.9-.2 1.3.2-.4.2-.9.2-1.3zM119.2 45c.6.3.1.1 0 0zm3 2c-.1-.1-.2-.1-.3-.1.1-.1.2 0 .3.1z"/><path fill="#fff" d="M120.2 45.6c-.3-.2-.5-.3-.8-.5.2.1.5.3.8.5z"/><path fill="#fff" d="M119.9 45.5l.6.3c.1 0 0-.1-.6-.3zm-1.7-.9c1.9.9 1 .3 0 0 .4.2.5.2 0 0zM97.5 180.1h0zM36.3 61.6zm-1.7 2.1l1.7-2c-.9.6-1.1 1.2-1.7 2z"/><path fill="#fff" d="M35.3 156.7l-1.1-1.4 1.7 1.8c-2.1-2.2-4-4.5-5.8-6.9l.4.6c-1.7-2.6-3.3-4.7-4.7-7.3.1.2.2.3.3.5-.9-1.7-1.8-3.5-2.8-5.2-.2-.5-.4-1.1-.6-1.6.5.5.9 1.2 1 1.9-.4-1.7-1.5-3.6-2-5.3.3.6.5 1.2.8 1.8-.5-1.5-1-3-1.4-4.5.1.5 1.1 4.1.3 2.1-1.1-3.4-2.3-6.7-2.5-10.3-.1-3.2-1.4-12-1.4-17.1.1-1.2.5-7.7.6-7.1 0-.9.1-1.9.3-2.8-.2.6-.3 1.1-.4 1.4.1-1 .3-2 .5-3 .1-.3.1 0 0 .4 0-2.5.5 1.6 0 2.1 0-3.6 2.2-11.9 4.4-15.5-.2.5-.1.7.2.4-1 1.6-1.2 3.6-1.9 5.3 1.2-3.6 2.7-7.1 4.3-10.5.1-.1 0 .3-.9 2.1 1.2-1.9 1-2.7 2.3-4.5-.2.3-.3.5-.4.8.4-1 1-2 1.7-2.8l-.3.4c1.2-2.1 5.8-7.7 5.8-7.8 1-1.6 2.2-3.2 3.4-4.7-.5 1.3 4.3-3.9-.4 1.3.6-.6 3-3.4 1.8-2.2 3.8-2.8 6.1-4.1 9.4-7.4l-1.1.7c4.8-3.5 8.5-6.8 14.7-9-2.3 1.2-4.6 2.5-6.8 4 1.2-.6.4-.1 2.1-1-.4.3-.9.6-1.4.8 1.5-.7 5.3-3.5 7-3.5-1.5.7-3 1.4-4.4 2.1.8 0 6.1-2.3 5.1-2.3 1 0 2.1-1.2 3.2-1.2l-1.3.6c.4-.2 7.2-2 7.2-2-3.7.3 6.1-.8 3.4-.8 1-.2 5.5-.8 3.2-.6 6.4-.8 12.8-1.4 19.3-.1 1.9.4-2.2-.3-.8.1 1.3 0 2.7.2 4 .4-.5-.5-4.7-.7-4.6-.7 0-1.6 16 3.3 16.3 3.3-1.4.1-3.5-1-4.9-1.4l1.7.6c-.7-.2-2.1-.5-2.8-.8 4 1.3 9.5 2.2 12.9 4.7l-1.1-.5c1.3.8 4.3 1.6 6.4 3-.6-.4-1.2-.8-1.9-1.1 1.4.7 2.6 1.7 4 2.4-.4-.3-.9-.6-1.4-.9 1.7.9 3.3 2 4.9 3-2-2-10-6-8.8-5.4-1.3-.3-7.4-3.3-5.7-2.6-3.5-1.5-7.1-2.6-10.8-3.4-14.5-3-29.4-2.3-42.6 3.3.2-.1.9-.4 1.4-.6-4 1.4-7.9 3.3-11.5 5.6.4 0-.8.5-1.1.6.3-.2.5-.3.8-.4 1.5-.9-3.2 2-3.2 2 .1.1-6.7 4.7-7.2 6-.2.2-5.1 4.8-4.5 4-7.4 8.8-14.9 19-17.1 29.9.5-.7-.5 2-.1-.1-.3 1.2-1.6 8.8-1.2 6.3 0 4.1-.8 8.8-1.2 12.9v-.6c.1.9 0 1.9.1 3.8v-.1c0 4 .4 8 1.4 11.9v-.8c-.1-.4 1.3 7.4.5 4.2 2.8 11.7 9.2 22.9 18.2 32.4l-.1-.1c3.5 5.3 12.5 10.8 18.4 13.6-.1 0-.3-.1-.4-.2 4.5 2.4 9.3 4.2 14.3 5.5-3.7-1.1.6 0-.9-.5.9.2 1.8.5 2.6.9-.3 0-.7-.1-1-.2 8.5 0 17.5 2.4 26.3 2.4h-.8c.8 0 1.6-.1 2.4-.3.6 0 .9 0-.9.2 1 0 2-.2 2.9-.5 1.6-.2 1.6-.2.1.1-1.2.2 1-.2 1-.2h-.3c2.8-.5 5.6-1.2 8.3-2l-1.2.2c.7-.1 1.3-.3 1.9-.6-.2 0-.4 0-.6.1 6-1.2 12.4-4.4 17.4-7.9 2.8-1.7 5.5-3.7 8-5.8 13.4-11.4 21-25.1 24.7-43.2-.1.3.6-7.1.6-9.6-.5 2.5-1.2 8.6-1.9 11.5l-.7 3.5v-.3c-1.2 3.5-3.3 9.5-4 11.7-.5 1.1-.7 1.3-.9 1.8-.4 1.3 1.4-3.1 1.1-1.9-1.1 1.6-5.1 12.2-7.2 12.2.3-.3.5-.7.7-1-1 1.2-1.8 2.9-3 4.1.4-.5.8-.9 1.2-1.4-3.5 4.2-7.2 8.1-11.1 11.9l.3-.2c-1.9 1.4-3.8 3-5.7 4.4l.1-.1c-3.1 2.6-6.6 4.7-10.4 6.2 1.2-.6-5.4 2.3-7.5 2.7-.8.3 2.5-.7 2.6-.7-2.3.4-5.8 1.8-8.6 2.4.3-.1.4-.1.7-.2-1.2.2-5.4.6-6.3 1.5l3.2-.6c-2.1.6-4.3 1-6.5 1.1.6-.1 1.1-.2 1.7-.3-.9.2-1.7.3-2.6.3 1-1 4.3-.5 5.7-1-3.3 0-6.7 1.1-10.1 1.1l1.2-.2c-1.8.1-3.7.1-5.5 0l2.1.1c-.3.1-.2.1.4.1-2.7 0-5.4-.2-8-.6.5 0 1.1.1 1.6.2-1.5-.1-2.9-.3-4.4-.5.2.3-5.5-.6-7.5-1.1l1.5.2c-.6-.1-1.2-.3-1.8-.4h.4c-2.8-.6-5.5-1.4-8.2-2.5.9.4 1.9.7 2.9.9-1.2-.5-3.1-1.2-3.9-1.5.3.1.6.2.9.4-3-1.1-3.1-1.3-5.3-2.2.6.1 1.2.2 1.7.5-3.3-1.4-19-10.6-18.4-12 .2-.4-9.5-9.1-6.1-5.7zm-14-23.5c.3.6.5 1.3.7 1.9-.3-.6-.6-1.2-.7-1.9.1.3.2.4 0 0zm-1.9-41.3c-.1.4-.2 1-.4 1.7.1-.6.3-1.1.4-1.7zm92.1-50c-1.1-.3-.7-.2 0 0zm2.4.9c-.1-.1-2.9-.8 0 0 .3.2-.6-.1 0 0zm-8.5 136.6l-.5.1c-1.5 0 1.7-.3.5-.1z"/><path fill="#fff" d="M18.5 96.6c0 .1 0 .1-.1.2 0 .2 0 .2.1-.2zm57.4-56.5c-.3.1-.7.1-1 .1 0 .1.3.1 1-.1zm49.9 8.6l-1.4-.8c.3.5.9.8 1.4.8zm1.1 1.1c.6.5 1.2 1 1.9 1.4-.1 0-3-2-1.9-1.4 0 .1.5.3 0 0zm2.1 1.4c.3.2.6.4.8.6-.2-.3-.5-.5-.8-.6zm-12.2-7.1c.2 0 .4.1.6.2-.5-.3-1-.5-1.6-.6.4 0 .7.2 1 .4.5.2-.5-.3 0 0zm10.7 6.4c-.2-.3-.5-.5-.9-.6l.9.6zm-7.6-4.5l2 1c-.6-.3-1.3-.7-2-1zm2 1.1c.4.3.8.5 1.3.7-.3-.2-.9-.5-1.3-.7zm3.5 2.1c-.5-.4-1-.7-1.5-.9l1.5.9zm-23.5-9.4l-1.9-.3c.6 0 1.2.1 1.9.3zm5.6 1.7c-.5-.2-1.9-.6 0 0zm-5.5-1.3c-.2 0-2.8-.4-.4 0 .4.1.7.1 1.1.1-.3 0-.5 0-.7-.1zM49.5 50.8c2-1.2.4-.4 2.2-1.5-.3.2-2.4 1.5-2.2 1.5 2-1.2-.6.2 0 0zm1.2-1c.2-.1.4-.3.6-.4-.2.1-.4.2-.6.4zm109.1 64.1v-1.4c-.1.5-.1.9 0 1.4zm-.1-2.8c.3-.3.3-.8.1-1.2 0 .4 0 .8-.1 1.2zM20.4 129.2c-.4-.4-.3 0 .2 1.1l-.2-1.1zm8 18.2l-.2-.3.2.6v-.3zM39 160.2c-.6-.5-1.1-1-1.6-1.5.4.6 1 1.1 1.6 1.5-.2-.2 0 .3 0 0zm98-128.7c.1 0 .3 0 .4-.1-.8.1-.4.2-.4.1zm-7.2.2h.1l-1 .1.9-.1zm-6.9 0c1.5.3 3 .2 4.4-.1-1.4.1-2.9.1-4.4.1.6.2 1 .1 0 0zm-3.6-.3c.2.1-.8.1.9 0h-.9zm-2.6 0l.9-.1c-.2 0-2.2.1-.9.1zm-.9.2h.5c-.1-.1-.2-.1-.5 0zm2-.1c.5 0 1.2.1.3.1 1.9 0 1.7-.1-.3-.1z"/><path fill="#fff" d="M122.6 31.9c.4 0 .9 0 1.3-.1-.5 0-.9.1-1.3.1zm-11.8-.5c.4.1.7.2 1.1.1-.4-.1-.8-.1-1.1-.1z"/><path fill="#fff" d="M111.2 31.5l-1 .1c.3 0 .7 0 1-.1zm4.5.2l1.7-.1-2.1.1h.4zm-8.9-.3l.6-.1-1 .1h.4zm-2.6 0l-.1-.1c-.4-.5-1.1-.4-1.9.1.6-.2 1.3-.2 2 0 .4-.1-.8-.1 0 0zm-3 0c.3 0 .6 0 .9-.1-.3 0-.6.1-.9.1zm7.2.1c-.3-.1-.5-.1-.8-.1.2.1.5.1.8.1zm4.5.1c-.6.1-1.9.1-.7.2.5 0-.2-.1.7-.2zm-4.5.1h.6c-.2-.2-.5-.2-.6 0zm-5.3-.2c-.5 0-1.1 0-1.6.1h1.9c.1-.1.4-.1-.3-.1zm-3.5 0c.3 0 .5 0 .8.1-.3-.2-.6-.2-.8-.1zm5.6 0c-.2 0-.4 0-.6.1.8.1 1 .1.6-.1zm-11.3.7c.1-.1 2.9-.4 2.9-.4-1.3-.8-3.1.3-.7 0-1.2.2-2.3.2-3.4.2.4 0 .8 0 1.2.2.1-.1-.4-.1 0 0z"/><path fill="#fff" d="M97.9 31.6h.5c-.9-.1-1.7-.1-2.6 0h2.1zm2.4 0c-.4.1-1.4.1-.8.2s1.1 0 1.7-.1c-2.7 0 .6-.1-.9-.1l-2 .1c.6-.1 1.3-.2 2-.1zm9.9.4h.9c-.5 0-3.6-.5-.9 0 .2 0-.6-.1 0 0zm-5-.2h-1.8l.9.1c.3 0 .6 0 .9-.1zm-9.7-.3c.3-.3-.5 0-.8 0h.8zm-2.4 0c.3-.2.1-.2-.5 0h.5zM75.8 97.1l.3.4c-.1-.1-.2-.2-.3-.4zm-1.9-3.3s0 .1 0 0zM57.8 67c-.1-.2-.2-.4-.4-.6.1.2.3.4.4.6 0-.1-.1-.2 0 0zm.7.3l.5.9c-.2-.2-.4-.5-.5-.9zM86.2 115l.4.5c-.5-.9-.3-.5-.4-.5zM69.4 31.5c-.7 0-1.2-.1-1.6-.1.5.1 1.1.1 1.6.1zm4.7 64.8c.1.1.2.3.3.4-.2-.3-.3-.4-.3-.4zm-8.3-64.8h1.9c-.6-.1-1.3-.1-1.9 0 .1 0 .7-.1 0 0zm57 24.8zm11.8-18.5c-.2.3-.3.5-.4.8.1-.3.2-.6.4-.8zm-31.7 53.5s0-.1 0 0c.3-.6.2-.4 0 0zM46 45.7l-.9-1.5c0 .8.4.8.9 1.5z"/><path fill="#fff" d="M80.3 104.9l-.5-1.1c.9 1.2 1.4 2.2.9 1.1-.8 0-2.7-4-3.2-4.9.1.2.2.3.3.4-.9-1.6-1.9-3.2-3-4.7-.2-.4-.1-.3.1.1-.6-1.1-1.3-2.2-2.1-3.3-.3-.6.2.3.1.1l-.7-1.1c-.2-.5.4.4.9 1.2-.4-1.2-.6-.9-1.8-3.4l.7 1.1c-.3-.8-.8-1.6-1.4-2.9.1.3 1.2 2.6.4 1.4-2.2-4.4-9.1-11.4-9.1-16.2-1.3-2-2.7-3.9-3.8-5.6.2.4.3.7.4.9l-1.1-1.7c.4.8.1-.4 0-.5.2.1 1.2 1.9 1.4 1.7-1.7-1.7-4.2-6.8-5.6-9.1.2.3.4.3.4 0l1.9 3.3c-1.2-2.2-2.5-4.4-3.9-6.5 0-.1.2.1.9 1.3-.6-1.4-1.2-1.5-1.8-2.9.2.3.2.4.3.5-.4-.6-1.3-2.3-1.1-1.9l.2.3c-2.7-4.6-4.8-8.6-5.9-10.5-1.1-2.2-2.4-4.4-3.8-6.5l.4.8c-.8-1.3-1.7-2.6-2.6-3.9.2.2 4.8-.7 6.2-.7-1.7.3-3.3.6-5 .7h1.4c.5.1-.7.1-1.1.1 1.1 0 4.4-.8 5.3-.3l-3.4.2c.3.5 3.7-1.4 3.7-.1.8-.1 1.5-.1 2.3-.1l-.9.1c3.9.3 5.8-.4 7.3-.2.7 0 3.7 0 2.1-.1 4.3 0 8.6-.2 12.9-.2 1.3.1-1.5 0-.5.2.1-.1 1.7-.1 2.7-.2-.3-.1-2.2 0-3.1 0 0-1 10.6-.1 11.2-.5-.9.8-2 .8-3.4 0l1.2.1c-.7.1-1.3.1-2 0 3.1.2 6.1.2 9.2 0-2-.7 3.1-.2 3.9-.2-.5-.1-.9-.1-1.4 0 .6-.1 2.4.2 3.1 0l-1.1-.1c1.1-.1 2.5-.2 3.8-.2-2.5-.4-5.3 0-7.6 0 .2 0 .5 0 .7.1-4.4.7-6.6-.1-11.8.1-8.7.4-22.7 0-27.8 0-1-.1-9-.4-8.3.9 0-.5.6 1 .6 1.1-.2-.3-.3-.6-.4-.9 1.5 2.2 2.6 6.3 4.8 7.8 0 0 .1.2-.1-.1 3 6.1 13.6 17.8 13.6 24.3-.2-.1-.3-.3-.4-.5.4.7 3.4 5.1 2.4 3.5 1.3 2.6 2.9 5.1 4.4 7.5l-.2-.4c2.3 1.9 3.7 6.7 5.2 9l-.2-.5c1.6 3.2 2 4.1 1.1 2.6 5.2 10.8 13.1 22.4 19.6 33.8.6-.8 1.1-1.7 1.4-2.6 0 .1 0 .2-.1.3 1.6-3 3.5-5.9 4.9-9-1.2 2.1.3-.6.3-.6l-.1.2c0-3.8 7.4-12.3 9.1-15.2l-.4.4.8-1.4c.2-.4.4-.4-.2.6.5-.8 1-1.6 1.4-2.5-.6 2.1-.3.1.1.2l-.1.2c.8-1.7 1.8-3.3 2.8-4.9l-.5.7c4.3-8.7 10-17.1 15.2-26.1 3.9-6.8 14.7-18.6 14.7-26.1-1.7 2-3.1 4.1-4.4 6.4l-1.1 2.1.1-.1c-1.7 3-2.5 4.2-4.5 7.5l.2-.2c-.2.4-.5.8-.8 1.2-.3.9 1.2-2 .9-1.2-.3.4-3.8 7.9-4.9 7.9.1-.2.3-.5.4-.7-.6.9-1.5 2.6-1.7 3l.6-1c-1.7 3-3.9 6.6-5.4 9.6l.2-.2c-2.1 3.9-4.3 7.3-6.4 11.3-.1-.1-.1-.3 0-.4-.9 1.7-1.9 3.3-2.9 4.9-.5 1.3 1.4-2.1 1-1.5-1.2 1.6-2.2 3.3-3.1 5.1l.2-.4c-.9 1.2-1.5 2.5-2 3.9l1-1.9c-.6 1.3-1.3 2.6-2.1 3.9.1-.4.3-.8.5-1.1l-.9 1.5c-.1-.2 1.3-2.3 1.8-3.5-1.5 1.8-2.1 4.3-3.4 6l.3-.8c-.6 1.1-1.2 2.2-1.9 3.2 1.3-2.2.4-.4 1-1.4-1.5 2.8-1.2 1.5-2.9 4.6 1.3-2.7-.4 1.4-1 1.7.4-.2-1.7 3.5-2.3 4.5l.4-1c-1 1.6-2.1 3.7-3.4 5.9.4-.5.7-1.1.8-1.8-.5.7-1.1 1.9-1.4 2.4.1-.2.3-.4.4-.6-.8 1.5-1.1 2.1-1.8 3.4 0-.4.1-.8.4-1.1-.4 1.2-1.2 2.4-1.9 2.6-3.1-5.2-5.2-8.2-7.7-13.1.1.3.3.6.5.9zm-9.3-16c.2.3.6.9.7 1.1-.3-.3-.5-.7-.7-1.1zM56.7 64.6c.2.3.4.6.6 1-.3-.2-.5-.6-.6-1zm21.7-33c-.8-.1-.6-.1 0 0zm27.8 55.5l-.2.3c.3-.7.2-.5.2-.3z"/><path fill="#fff" d="M58.4 67.3v.2c.1 0 .1 0 0-.2zm-4.1-34.8c-.2 0-.5 0-.7-.1 0 .1.1.1.7.1zm35.6-.7c.5.1 1 .1 1.5 0-.5-.1-1-.1-1.5 0zm-7.7-.3c.1 0 .3 0 .4-.1.4-.1-2.4.2-.4.1zm8.3.6c-.2-.1-.5-.1-.7 0h.7zm-14.8.2c-.6 0-1-.1 0 0zm-3.8 0c-.1 0-1.9.1-.2.1.1 0 1.4-.1.2-.1zm-32.5 1.8c-1.2-2.2-.1-.6 0 0-.4-.7.1.4 0 0zm-.6-.8c0-.1-.1-.2-.2-.3.1.1.1.2.2.3zm97.7 1.4l.5-.8c-.2.2-.4.5-.5.8zm.8-1.7c.3-.1.5-.4.4-.7-.1.2-.2.4-.4.7zM69.9 86.3c-.4 0-.3.3.3.8l-.3-.8zm6.6 11.8l-.1-.2.1.4v-.2zm5.8 9.7c-.2-.4-.5-.9-.7-1.3.5.9.6 1.5.7 1.3zm71-27.3c.6 0 .4-.1.5-.1-1 0-.5.1-.5.1zm-9.5.2h.1l-1.4.1 1.3-.1zm-9 0c1.9.3 3.9.3 5.8-.1-1.9.1-4.4.1-5.8.1.8.2 1.4 0 0 0zm-4.6-.3c.3.1-1 .1 1.1 0h-1.1c.2.1.3 0 0 0zm.8 0c.9 0-.6-.1 0 0zm-4.2 0l1.2-.1c-.3 0-3.1-.1-1.2.1z"/><path fill="#fff" d="M128.3 80.5c.7 0 1.6.1.3.1 2.4-.1 2-.2-.3-.1zm6.1.4c.6 0 1.1 0 1.7-.1-.4.1-1.8 0-1.7.1zm-15.3-.6c.5.1.9.2 1.4.1-.5.1-1 0-1.4-.1-.1 0 0 .1 0 0z"/><path fill="#fff" d="M119.6 80.4l-1.4.1c1.1 0 1.4 0 1.4-.1zm5.7.3l2.2-.1-2.7.1h.5zm-11.5-.4l.8-.1-1.4.1h.6zm-3.4 0c1.2-.2-19.7-.1-2.7-.1.9.1 1.8.2 2.7.1.6 0-1.1 0 0 0zm-3.9.1c.4 0 .8 0 1.2-.1-.4 0-.8 0-1.2.1zm9.3.1c-.4-.1-.7-.1-1.1-.1.4.1.8.2 1.1.1zm6 .1c-.8.1-2.5.1-.9.2.2-.1.5-.2.9-.2zm-12.8-.2c-.7 0-1.4 0-2.1.1-4.6 0 5.1-.1 2.1-.1zm.6.1c3.5 0 0 0 0 0 .6 0-.2.1 0 0z"/><path fill="#fff" d="M104.4 80.4c.4 0 .7 0 1.1.1-.4 0-.8-.1-1.1-.1zm7.3.1c-.1-.1-.1-.1 0 0zm0 0c-.3 0-.5 0-.8.1 1 .2 1.3.1.8-.1zm-14.7.6c1.3-.2 2.5-.3 3.8-.3-.9-.3-1.9-.3-2.8-.2.2 0 2.2.2 2 .2-1.1 0-3.4.5-4.5.2.5 0 1 0 1.5.1.1-.1-.5 0 0 0zM102.1 80.5h.6c-1.1-.1-2.2-.1-3.3 0h2.7zm3.3 0c-.5.1-1.9.1-1 .2.7 0 1.5 0 2.2-.1-3.6 0 .9-.1-1.2-.1l-2.7.1c.9-.1 1.8-.1 2.7-.1zm12.9.4c1.7 0 .6.3 1.7 0-1 .2-2.2-.3-3.2-.3.4.2.9.3 1.5.3zm-6.6-.1h-2.3l1.2.1h-.1c1.4 0 1.1-.1 1.2-.1zM99 80.5c.5-.5-.6-.1-1 0h1zm-3 0c.3-.3.1-.3-.7-.1l.7.1zm-22.8 85.6l.4.6c-.2-.2-.3-.4-.4-.6zm-2.5-4.3l-.1-.1c.1.2.2.2.1.1zM23.9 83l.9 1.8c-.2-.6-.5-1.2-.9-1.8.4.9.2.4 0 0zm26 43.8c-.1-.3-.2-.6-.5-.8.2.3.3.5.5.8 0-.1-.2-.3 0 0zm.7.4l.6 1.2c-.1-.4-.3-.8-.6-1.2zm36.2 62.2l.5.6c-.7-1.1-.4-.6-.5-.6zM64.9 80.5c-.9 0-1.5-.1-2.1-.1.7.2 1.4.2 2.1.1zm6.4 84.4c.1.2.2.3.3.5-.2-.4-.3-.6-.3-.5zm63.5-52.1c0-.1.1-.1.1-.2s0 0-.1.2zM150 88.5c-.1.2-.4.6-.6 1 .1-.2.3-.5.6-1zM53.9 81c.1.1.1.1 0 0zm30.9-.5H84c.2-.1.5-.1.8 0zm24 78l.1-.1c.3-.6.1-.4-.1.1zM34.4 98.9L33.2 97c.1 1.1.6 1.1 1.2 1.9z"/><path fill="#fff" d="M79.1 176.3l-.7-1.4c1.1 1.6 1.8 2.9 1.1 1.5-1.1 0-3.4-5.3-4.1-6.5l.3.6c-1.1-2.3-2.6-4.2-3.8-6.3-.3-.4.4.4.1.1-.7-1.1-2.5-4.2-2.5-4.2l-.9-1.5c-.3-.7.5.6 1.1 1.6-.6-1.6-.8-1.2-2.4-4.4l.9 1.4c-.4-1-1.1-2.1-1.9-3.8.2.4 1.6 3.4.6 1.8-2.6-6.5-12.2-14.3-12.2-21.2-1.7-2.6-3.4-5.2-4.8-7.4.2.5.4.9.5 1.1l-1.4-2.2c-.1-.3 0-.1.3.3-1.6-1.6 1.2.7 1.2 1.4-.2-.2-.3-.5-.5-.7l.1.1c0-3.3-5.3-8.7-6.9-11.3.3.5.4.5.4.1.8 1.5 1.6 2.9 2.5 4.3-.4-.7-.5-.8-.2-.5-1.6-2.7-3.2-5.2-4.8-7.9 0-.1.3.1 1.1 1.7-.8-1.8-1.5-2-2.3-3.8.1.2.2.5.4.7-.5-.8-1-1.6-1.4-2.5l.2.4c-2.8-5.1-4.1-7.7-7.3-11.6 1 .8-2-4.2 1.1.6-1.9-3.7-3.9-6.7-6.6-11.3l.5 1c-.7-1.1-3-5.3-3-5.3 1.4-1.4 5.7-.7 7.8-.7-1.3.2-4.9.6-6.9.8.7.1 1.4.1 2.1.1.6.1-.9.1-1.5.1 1.2 0 5.8-.8 6.9-.3l-4.4.2c.8.8 4.7-.9 4.9-.1 1-.1 2-.1 3-.1l-1.2.1c.8.1 6 .6 6.6 0-3.9-.7 5.9.1 2.9-.2.9 0 4.9 0 2.8-.1 5.5 0 11.1-.2 16.7-.2 1.7.1-1.9 0-.7.2.1-.1 2.2-.1 3.5-.2-.4-.1-2.9 0-4.1 0 0-1 13.7-.1 14.5-.4-1.1.5-3.3 0-4.4 0l1.6.1c-.9.1-1.7.1-2.6 0 3.9.3 8 0 11.9 0h-1.1c1.5.2 4-.4 6.2-.2-.6-.1-1.3-.1-1.9 0 .8-.1 3.1.2 4 0l-1.4-.1c1.4-.1 3.2-.2 5-.2-3.5-.4-6.6 0-9.8 0 .3 0 .6 0 .9.1-1.8.1-3.7.1-5.5 0-3.3 0-6.7 0-10 .1-11.3.4-29.7 0-36.5 0-1.5-.1-11.4-.7-10.5 1.2-.1-.1-.1-.1-.1-.2.3.5.6 1 .8 1.6-.1-.3-.3-.6-.5-.9 1.9 2.8 2.8 8.4 6.1 10 0 0 .1.2-.1-.1.4.7 3.1 5.6 2.5 4.8.8 1.3 1.7 2.7 2.6 4l-.1-.1c4.3 7.5 8.4 15.8 12.6 22.2-.1 0-.2-.1-.3-.2.8 1.1.8 1.2.1.3.7 1.1 2.7 3.9 3.4 4.9.2.4.5 1.1-.3-.3 1.7 3.3 3.9 6.5 5.8 9.7l-.3-.5c3.1 3.7 4.3 8 6.8 11.8l-.3-.7c.6 1 1.3 3 1.9 4-.2-.2-.3-.4-.4-.6 4.8 9.2 10.7 18 16.4 28.1l-.1-.1c2.9 5.1 5.4 10.6 9.1 15.6.5-1.1 1.2-2 1.7-3.1 0 .1 0 .3-.1.4 2.1-3.9 4.5-7.7 6.5-11.7-1.7 2.9.1-.5-.6.6.6-1.1 1.8-2.9 1-1.5l-.1.2c1-6.1 8.8-14.6 11.8-19.9l-.5.5 1.1-1.8c.3-.5.5-.6-.3.7.7-1 1.3-2.1 1.8-3.2-.6 1.9-.8.8 0 .1l-.2.2c1.1-2.2 2.4-4.4 3.8-6.4l-.7.9c9.1-20.1 23.7-42.6 35.6-61.7.6-.9 3.3-5.2 3.7-6.9-1.8 2.2-4.1 6.3-5.6 8.5l-1.5 2.8.1-.2c-2.2 3.9-3.2 5.5-5.8 9.8l.3-.3c-.3.5-.6 1-1 1.5-.5 1.1 1.5-2.6 1.1-1.5-.4.5-5.2 10.5-6.4 10.5.1-.2.4-.7.5-.9-.8 1.3-1.5 2.6-2.2 3.9l.8-1.4c-2.2 3.9-5 8.7-7.1 12.5l.2-.3c-1.6 2.9-1.4 2.3-3.2 5.5l.1-.1c-1.5 3.2-3.2 6.3-5.1 9.3.7-1.4-2.7 4.5-3.7 5.8-.7 1.6 1.8-2.8 1.3-1.9-1.4 1.9-2.8 4.6-4 6.7l.3-.6c-1 1.6-1.9 3.3-2.7 5.1l1.4-2.5c-.8 1.4-1.3 2.8-2.7 5 .1-.2.4-.9.7-1.4-.4.6-.7 1.3-1.2 2 0-.3 1.7-3 2.4-4.5-1.8 2.5-2.8 5.7-4.4 7.7l.4-1c-.7 1.5-1.7 2.8-2.5 4.2 1.7-2.9.5-.6 1.3-1.8-2 3.7-1.4 1.9-3.7 6 .3-.6 1.2-2 .8-1.1-.7 1.1-1.4 2.2-2 3.3.3-.2-2.3 4.4-3.1 5.8l.5-1.2-.8 1.5.1-.4c-1.2 2.3-2.4 4.4-3.6 6.7.5-.7 1-1.5 1.2-2.4-.6 1-1.5 2.5-1.9 3.2.1-.3.3-.5.5-.7L91 188c.3-.9 0-.4-.9 1.5 0-.3-.1-.3.6-1.4-.5 1.3-1.5 2.4-2.1 3.6-1.1-1.4-6.4-10.3-6.3-10.4.2-.4-4.4-7.7-4.2-7.1.3.7.6 1.4 1 2.1zm-12.2-20.9c.4.5.7 1 .9 1.5l-.9-1.5zm-18.6-31.8c.3.4.5.8.7 1.3-.2-.4-.4-.8-.7-1.3zm64.6 29.3l-.2.4c.4-.9.3-.6.2-.4z"/><path fill="#fff" d="M50.5 127.2c.1.1.1.2 0 .2.2.1.2.1 0-.2zm36.2 62.1c0 .1 0 .2.1.2l-.1-.2zM45.2 81.5c-.3 0-.6 0-.9-.1.3.1.6.2.9.1zm46.5-.8c.7.1 1.3.1 2 0h-2c.1.1 1.1 0 0 0zm2.2.1h.9-.9zm-12.2-.3c.2 0 .4 0 .6-.1.4-.1-3.2.2-.6.1zm10.8.5c-.3-.1-.6-.1-.9 0h.9zm-2.1.1c-.5-.1-1.1-.1-1.6-.1l1.6.1zm-17.2.2c-.3 0-1.8-.2 0 0zm-5 0c-.2 0-2.5.1-.3.1.2-.1 1.9-.1.3-.1zm-42.5 2.4c-.4-.5-.8-1.1-1.1-1.7 0-.1 1.2 2.2 1.1 1.7-.5-.9.1.6 0 0zm-.8-1c-.1-.2-.2-.3-.3-.5.1.2.2.4.3.5zm127.5 1.7l.7-1.1c-.3.4-.5.7-.7 1.1zm1.1-2.1c.4-.2.6-.5.6-.9-.2.1-.4.6-.6.9zm-88.1 69.8l-.1-.1c.1.3.3.7.5 1l-.4-.9zm8.7 15.2l-.2-.3.2.6v-.3zm7.5 12.7c-.3-.5-.7-1.1-1-1.6.3.6.6 1.1 1 1.6zM49.4 49.6c.6-.4.3-.3.4-.4-1 .6-.4.4-.4.4zm-8.6 6.7l-1 1 1-1zm-7.1 7.4c1.7-1.5 3.1-3.2 4.4-5-1.5 1.6-3 3.3-4.4 5 .4-.3.5-.6 0 0zm-3.6 4.2c.2-.2-.6 1 .8-1-.1.4-.4.8-.8 1 .2-.2.3-.5 0 0zm.6-.9c.6-.9-.5.5 0 0zm-2.8 4.3l.7-1.2c-.1.1-2 2.7-.7 1.2zm-.6 1.1l.4-.6c-.2.2-.3.4-.4.6zm1.2-2l-.8 1.3c.3-.4.6-.8.8-1.3zm.5-.7c.7-1 .8-1.1.3-.2.4-.5.7-1 1-1.5-.4.6-.9 1.2-1.3 1.7.2-.3.3-.6 0 0zm4.5-5.4c.5-.5 1-1 1.4-1.5-.4.5-.9 1-1.4 1.5zm-9.9 14.6c0-.1.7-1.3.8-1.5-.2.6-.5 1.1-.8 1.5 0 .1.1 0 0 0zm.3-.4l-.6 1.5c.6-1.4.7-1.6.6-1.5z"/><path fill="#fff" d="M27.3 72.7l1.2-2.2c-.5.8-1.1 1.7-1.5 2.6l.3-.4zm-6.1 11.8c.1-.3.1-.5.2-.8l-.4 1.6.2-.8zM20 88.3c.1-.7-4.6 17.8-.9 3l.9-3c.1-.7-.4 1.2 0 0z"/><path fill="#fff" d="M18.8 92.6c.1-.4.2-.9.3-1.4-.1.5-.2 1.1-.3 1.4zm3.5-10.2c-.2.3-.4.7-.5 1.1.3-.3.5-.7.5-1.1zm0-.1c0 .1 0 .1-.1.1l.1-.1zm2.9-6c-.4.8-1.2 2.6-.3 1 .3-.7-.2.2.3-1zm-2.5 5.3c.2-.5.5-1.1.7-1.6-.1.6-.4 1.1-.7 1.6zm-.3.7l.3-.7c0 .3-.1.5-.3.7zm-2.7 7.6c-.2.8-.4 1.5-.6 2.3l.8-2.8c0-.1 0-.5-.2.5-.1.4.2-1 0 0zm1-3.4v.2c0-.2.1-.2 0-.2z"/><path fill="#fff" d="M19.9 89.3c.2-.7.3-1.1.4-1.5-.1.6-.3 1.1-.5 1.7.1 0 .1 0 .1-.2.2-.7 0 .2 0 0zM18.3 95c0-1.3.3-1.4 0 0zm2.3-8.2c-.1.2-.1.1 0 0zm0 0l-.3.9c.1-.4.3-.8.4-1.1 0 .1 0 .2-.1.2zm-2.8 16.8c0-.9-.2-3.7.2-4.3-.4 1-.7 2.1-.6 3.2.1-.9.3-1.8.4-2.6-.6 1.7.4 3.9-.1 5.4 0-.7 0-1.3.1-2v.3zm.2-6l.1-.7c-.3 1.2-.5 2.5-.6 3.7.1-1.1.3-2.2.5-3.3v.3zM18.7 93.9c0 2.4.1-.5.4-1.4-.7 3.1.2-.9-.4 1.4.1-.7.3-1.3.4-1.8-.1.6-.3 1.1-.4 1.6v-.1.3c0 .5 0-.5 0 0-.2 1-.4 2-.6 3.1.3-.9.4-2.1.6-3.1 0 .1-.1.4 0 0zm5.7-15.1c0 .1 0 .1-.1.1-.1.2-.1.4.1-.1z"/><path fill="#fff" d="M23.8 80c.8-1.6.5-.7.9-1.8-.5 1.1-1.1 2.1-1.7 3.1.3-.4.5-.9.8-1.3.1-.2-.5.8 0 0zm-2.9 6.9c-.3.9-.5 1.7-.8 2.6.5-.8.8-1.7.8-2.6zm-3.5 14.4l-.1-.4v1.6l.1-1.2zm-.2 3.3c-.2 0-.2.4-.1.8l.1-.8zM152 141.1l.3-.7c-.1.2-.2.5-.3.7zm-2.7 4.9v.1c.1-.2.1-.3 0-.1zM58 174.3c.6.4 1.3.8 2 1.1-.6-.4-1.3-.8-2-1.1 1 .6.4.2 0 0zm56.9 1.4c-.4.1-.7.3-1 .5.3-.2.7-.3 1-.5-.1 0-.3.2 0 0zm.6-.7l1.4-.5c-.3.1-.8.3-1.4.5zm43.8-63.6v-1c-.1 1.5-.1.9 0 1zM23.5 139.5c.4.9.7 1.6 1 2.3-.2-.8-.5-1.6-1-2.3zm128.4 4l.3-.6c-.3.5-.4.7-.3.6zm-126 .8l-1.3-2.6c.4.9.8 1.7 1.3 2.6zm32.3-99.6l1.2-.6-1.2.6zm-40.7 70.4c0 .1 0 .2.1.3 0-.1-.1-.2-.1-.3zm12.8 35.1c-.1-.1-.1-.1 0 0zm-12.9-32.6c0 .3 0 .6.1.9-.1-.3-.1-.6-.1-.9zm-.1.1c0-.2 0-.4-.1-.6.1-.1.1 0 .1.6zm.3 2c-.1-.4-.1-.8-.2-1.2 0 .4.1.8.2 1.2-.1-.4-.1-.5 0 0zm125.1-56.2l-.1-.1c-.5-.6-.3-.3.1.1zm-63.6 116c-.9 0-1.8-.1-2.6-.3.7.6 1.7.7 2.6.3z"/><path fill="#fff" d="M156.8 128.5l-.6 1.7.6-2.5c-.7 3-1.6 5.9-2.7 8.7.1-.2.2-.5.3-.7-1.4 2.9-2.1 5.3-3.5 7.9.1-.2.2-.3.3-.5-1 1.7-1.9 3.5-2.9 5.2-.5.7.2-.4.1-.2-.3.6-.7 1.2-1.1 1.8.2-.7.6-1.4 1.1-1.9-1.2 1.4-2.2 3.2-3.3 4.7.4-.4.8-.9 1.1-1.5-1.1 1.1-2.1 2.6-3.1 3.7.4-.4 2.9-3.2 1.6-1.4-2.2 2.8-4.4 5.6-7.4 7.7-1.3.9-9.7 10.4-13.8 10.4-3.8 2.2-6 3.4-8.7 4.7.6-.2 1-.3 1.4-.4l-2.7 1.2c-.3.1-.1 0 .4-.3-2.3 1.1 1.3-1.1 1.8-1.1 2.6-.9-2.9 1.5-.7.3-4.4 0-9.9 3.5-14.4 4.4.6-.1.7-.3.2-.4 1.8 0 3.7-.8 5.5-1.2-2.8.8-7.5 1.3-11 2.2-.1-.1.3-.2 2.3-.4-2.2 0-2.8.6-5 .5.3 0 .6 0 .9-.1-1.1.2-2.2.2-3.3 0h.5c-3.5 0-6.9-.3-10.4-.3.2-.1.5-.2.7-.2-2 0-3.9-.1-5.9-.3 1.4-.3-5.3-1.4 1.3-.4-1.1-.3-2.2-.5-3.3-.7-2.1-.4-6.7-2.2-10.9-3.3l1.2.5c-2.2-.7-4.3-1.5-6.4-2.4-3.2-1.4-6.3-3.1-9.2-5 2.3 1.4 4.6 2.6 7.1 3.5-.6-.5-1.3-.9-2-1.2-.6-.4 1 .4 1.5.7-1.9-1.2-5.2-2.5-6.8-4.1l4.2 2.6c0-.4-6.7-3-4.6-3-.5 0-2.7-1.9-2.8-2l1.1.8c-.8-.7-4.6-5-5.6-5 2.5 3.1-4.2-4.6-2.4-2.2-.6 0-4-4.6-2.3-2.3-4.4-4.6-8-10-10.5-15.9-.7-1.8 1 2 .5.6-.7-1.1-1.3-2.3-1.8-3.5 0 1.1 1.7 3.7 1.9 4.2-3 0-5.1-13.8-6.1-15.3.8 1.1 1 3.6 1.4 4.9l-.5-1.8c.2.7.7 2 .9 2.8-1.5-4.3-2-8.9-2.9-13.4l.2 1.2c-.1-1.6-.9-4.4-.9-6.9 0 .7 0 1.5.1 2.2-.2-.9.3-3.6-.2-4.6v1.7c0-1.9-.5-3.8-.1-5.7-.8 3.8-.1 7.8.4 11.2v-1c.4 1.5 1.1 8 .7 6.3 3.1 17.9 14.3 35.1 29 44.9-.4-.2-.8-.6-1.2-.9 3.3 2.8 7.2 4.5 10.9 6.7-.5 0 1.1.6 1.1.6-.3-.1-.5-.3-.8-.5 2.5 1.3 9.4 5.5 12.5 4.5 0 0 .3.1-.2 0 1 .3 7.1 1.7 6 1.5 11.3 1.4 24.3 2.1 34.5-2 .3 0-.6.3-.3.2 1.6-.8 1.4-.4.4-.1 2.2-.7 4.3-1.6 6.3-2.8.5-.1 1.3-.4-.4.3 3.9-2 7.8-3.5 11.5-6l-.6.3c2.4-2.1 5.4-3.7 8-5.6l-.2.1c1.5-1.3 3.1-2.7 4.6-4.1l-.6.6 3.8-3.4c-.1.2-.3.5-.5.7 8.5-8.9 14.1-19.7 17.2-32.8v.1c2.2-6.5 2.4-15.7 1.5-22.8 0 .1 0 .3.1.4-.7-5.2-1.2-10-3.1-14.9 1.1 3.7-.3-.5.1 1-.3-.9-.5-1.7-.7-2.6l.3.9c-2.2-2.2-3.5-9.6-5.3-12.7-2-3.6-4.2-7.8-7.1-10.7.1.3.2.5.4.8l-1.5-1.8c-.4-.5-.5-.7.7.6-.8-1.1-1.8-2.2-2.9-3.1 1.6 1.2 1 1 .1 0l.2.3c-2-2.1-4.1-4-6.3-5.8l.8.9c-.4-.6-1-1-1.6-1.3.1.2.2.3.4.4C118.2 35.9 84 35.1 60.7 44.3c.4-.1-6.8 3.3-8.3 4.8 2.6-1.1 7.3-2.6 10.7-4.6.6-.2-17.1 6 3.1-1.1l-.2.1c3.9-1.3 8.4-3 12.6-3h-.4c.7-.1 1.3-.2 2-.2 1.4-.4-3.4.5-2.2.1 5.1 0 9.4-1.1 14-.7h-1.2c1.7.2 3.3.3 5 .3-.6-.1-1.2-.1-1.8-.2 5.4 0 10.9 1.6 16.1 2.9l-.3-.2c6.2 1.2 12.2 4.3 17.5 7.8-1.4-.9 1.2.8-.6-.1 2.4 1.6 4.7 3.2 7 4.9.8.4-2-1.7-2-1.7 2 1.5 4.5 4.1 6.8 5.8-.2-.1-.4-.3-.5-.5 1 1 3.5 4.2 4.7 4.6l-2.2-2.3c1.4 1.7 3 3.1 4.4 4.8-.2-.2-.8-.8-1.2-1.3l1.6 2c-.9 0-3.1-3.7-3.9-4.3 2.1 2.8 4.7 5.4 6.4 7.9l-.8-1c1.2 1.5 2 3.1 3 4.6-.4-.7-.8-1.4-1.1-2.2.8 1 5.1 8.8 3.2 5.7.7 1.3 1.3 2.6 1.9 4 .2-.4 2.4 4.9 3.1 6.8l-.7-1.4.6 1.8-.2-.4c1 2.7 1.8 5.4 2.4 8.2-.2-.7-.3-2.3-.8-2.8.3 1.3.7 3.2.9 4.1-.1-.3-.1-.8-.2-1 .1.5.9 4.7.5 3.3.2.8.3 1.5.4 2.3-.3-.5-.4-1.1-.5-1.7.7 4.1 1.9 20.7-.1 21.7-.4.2-2.5 9.9-2.3 9.2-.5-.9-.6-1.9-.3-2.8zM144.6 153l1.2-1.6c-.3.6-.7 1.1-1.2 1.6.2-.2.3-.4 0 0zM111 177c.5-.2 1.1-.4 1.6-.6-.6.2-1.1.4-1.6.6zm-92-50.3c.3 1.2.2.8 0 0zm-.5-2.5c-.4-.4-.3 0 .2 1.2 0-.4 0-.8-.2-1.2-.1-.2.2.7 0 0zm119.3-66.9l.3.4c.6 1.1-.9-1.1-.3-.4z"/><path fill="#fff" d="M115.4 175.1h.2c.2-.1.2-.1-.2 0zm-78.6-17.4c.2.3.4.5.6.8.1-.1-.1-.3-.6-.8zm-20-46.7c0 .6 0 1.1.1 1.7.2-.6.2-1.2-.1-1.7zm1.8-13.7c0-2.3-.3 1.6 0 0 0-.3-.2 1 0 0zm-1.4 12.2c0-.8.1-1.5.1-2.3 0 .8-.1 1.5-.1 2.3zm.7 11.6c-.1-.2-.1-.4-.2-.6.2.5.2 1.2.3 1.7.1-.4.1-.8-.1-1.1-.1-.5.1.7 0 0zm-.4-12.5c-.1.4-.1.7 0 1.1v-1.1zm.3 8.8c0-.8 0-1.5-.2-2.3.1 1.2.2 2.4.2 2.3zm-.2-2.2c0-.6-.1-1.1-.1-1.4 0 .3.1.9.1 1.4zm-.1-4.1c0 .6 0 1.3.1 1.9.1-.6 0-1.3-.1-1.9zm5 24.9l.8 1.8c-.3-.6-.5-1.2-.8-1.8zm-1.7-5.6c.1.4.7 1.8 0 0zm1.9 5.3c.1.2 1.2 2.6.2.3-.1-.3-.2-.7-.5-.9.2.1.3.3.3.6.1.2-.1-.4 0 0zM60.1 174c-2.1-1-.6-.1-2.4-1 .4.2 2.5 1.2 2.4 1-2.1-1 .5.4 0 0zM58.7 173.5c-.2-.1-.5-.2-.7-.3.2.2.4.3.7.3zM53.3 47.1c-.5.2-1 .4-1.4.7.5-.2 1-.5 1.4-.7zm-2.4 1.7c-.5 0-.9.3-1.1.7.4-.3.7-.5 1.1-.7zm90.8 107.1c0 .5.3.2.9-.8l-.9.8zm11-16.6l-.2.4.4-.6-.2.2zm5-15.9l-.4 2.2c.3-1.5.6-2.3.4-2.2-.1.3.2-.1 0 0zM23.9 81.9c-.6 0-.4.1-.5.1 1 0 .5-.1.5-.1zm9.5-.2l1.3-.1-1.3.1zm9 0c-1.9-.3-3.9-.3-5.8.1 1.9-.1 4.4-.2 5.8-.1-.8-.2-1.4-.1 0 0zm4.7.3c-.3-.1 1-.1-1.1 0h1.1c-.3-.1-.4 0 0 0zm-.9 0c-.9 0 .6.1 0 0zm4.3 0l-1.2.1c.2 0 3.1.2 1.2-.1zm-.8 0l1.4-.1c-.5 0-.9 0-1.4.1z"/><path fill="#fff" d="M48.9 81.9c-.7 0-1.6-.1-.3-.1-2.4 0-2 .2.3.1zm-6.1-.4c-.6 0-1.1 0-1.7.1.4-.1 1.8 0 1.7-.1zm15.4.6c-.5-.1-.9-.1-1.4-.1.5 0 .9 0 1.4.1.1 0 0-.1 0 0zm-.5-.2l1.4-.1c-1.2.1-1.4.1-1.4.1zm-5.8-.2l-2.2.1 2.7-.1h-.5zm11.6.4l-.8.1 1.4-.2-.6.1zm3.4 0c-1.2.2 19.7.1 2.7.1-.9-.1-1.8-.1-2.7-.1-.6.2 1.1 0 0 0zm3.9-.1c-.4 0-.8 0-1.2.1.4 0 .8 0 1.2-.1zm-9.4-.1c.4.1.7.1 1.1.1-.4-.1-.7-.1-1.1-.1zm-5.9-.1c.8-.1 2.5-.1.9-.2-.3.2-.6.2-.9.2zm12.8.1c.7 0 1.4 0 2.1-.1h-2.5c-.1.1-.5.1.4.1zm4.6.1c-.4 0-.7 0-1.1-.1.4.1.7.1 1.1.1zm-7.3-.1c.1.1 0 .1 0 0zm0 0c.3 0 .5 0 .8-.1-1-.1-1.3-.1-.8.1zm14.7-.6c-1.3.2-2.5.3-3.8.3.9.3 1.9.3 2.8.2-.2 0-2.2-.2-2-.2 1.1 0 3.4-.5 4.5-.2-.5.1-1 .1-1.5-.1-.1.1.5 0 0 0z"/><path fill="#fff" d="M75.2 81.9h-.6c1.1.1 2.2.1 3.3 0h-2.7zm-3.3 0c.5-.1 1.9-.1 1-.2-.7 0-1.5 0-2.2.1 3.6 0-.9.1 1.2.1l2.7-.1c-.9.1-1.8.2-2.7.1zM59 81.4c-1.7 0-.6-.3-1.7 0 .2 0 3.2.2 2.5.2 1.2.1.9.1-.8-.2-.2 0 .8.1 0 0zm6.5.2h2.3-2.3zm12.8.3l-.3.1 1.3-.1h-1zm3 0c-.3.3-.1.3.7.1l-.7-.1zm23.8 84.9l-.3.6c0-.2.1-.4.3-.6zm2.5-4.2v-.1c-.1.2-.2.3 0 .1zm44.7-79.9c-.4.5-.8 1.1-1.1 1.7.5-.4.9-1 1.1-1.7-.6.8-.2.4 0 0zm-25 44.5c.2-.2.4-.5.5-.8-.2.2-.3.5-.5.8.1-.1.2-.4 0 0zm0 .8l-.7 1.1c.2-.3.5-.6.7-1.1zm-35.7 62.3l-.3.7c.6-1 .3-.6.3-.7zm20.8-108.4c.9 0 1.5.1 2.1.1-.7-.1-1.4-.1-2.1-.1zm-7.3 82.8c-.2.4-.3.5-.2.5.2-.3.3-.6.2-.5zm11.8-82.8h-2.5c.9.1 1.7.1 2.5 0-.1 0-.9.1 0 0zm-75.5 31.7c0-.1-.1-.1-.1-.2.1.1.1.1.1.2zM28 88.4c.1.2.4.6.6 1-.1-.1-.3-.5-.6-1zm40 70.7c0-.1 0-.1-.1-.1-.3-.4-.3-.9.1-1.2s.9-.3 1.2.1.3.9-.1 1.2c-.3.2-.8.2-1.1 0zm75.7-59.4l1.1-2c-.8.7-.7 1.1-1.1 2z"/><path fill="#fff" d="M99.2 177.1l.9-1.4c-.9 1.8-1.6 3-.7 1.7-.4-1.5 2.7-5.3 3.6-6.7l-.3.6c2.3-3.3 4-8.4 6.1-10.5l.8-1.6c.4-.6-.2.7-.9 1.8 1.1-1.3.7-1.3 2.6-4.3l-.8 1.5c.8-1.1 1.6-2.4 2.3-3.6-.3.4-2.1 3.1-1.2 1.4 4.2-7.1 6.5-15.5 12.2-21.2 1.4-2.8 2.8-5.4 4-7.8-.3.3-.5.7-.7 1l1.2-2.3c.6-.9.4 1.7-.6 2.2 1.7-3.3 4.5-8.4 6.7-12.3-.2.5-.2.6.2.4-.9 1.4-1.7 2.8-2.5 4.3 1.2-2.2 3.4-5.7 5-8.5.1 0 0 .3-.9 1.8 1.1-1.6 1-2.3 2.1-3.9-.1.2-.2.5-.4.7.4-.9.9-1.7 1.5-2.5l-.2.4c3-5 4.6-7.4 6.4-12.1-.3 1.3 2.6-3.7 0 1.3 2.5-3.6 4.6-7.4 6.4-11.4l-.6 1c1.6-2.5 2.7-4.7 3.8-6.3-3 .5-6.1.7-9.2.7 1.3-.2 4.9-.6 6.9-.8-.7-.1-1.4-.1-2.1-.1-.6-.1.9-.1 1.5-.1-1.2 0-5.8.8-6.9.3l4.4-.2c-.8-.8-4.7.9-4.9.1-1 .1-2 .1-3 .1l1.2-.1c-.8-.1-6-.6-6.6 0 3.9.7-5.9-.1-2.9.2-.9 0-4.9 0-2.8.1-5.6 0-11.1.2-16.7.2-1.7-.1 1.9 0 .7-.2-.1.1-2.2.1-3.5.2.4.1 2.9 0 4.1 0 0 1-13.7.1-14.5.4 1.1-.5 3.3 0 4.4 0l-1.6-.1c.9-.1 1.7-.1 2.6 0-3.9-.3-8 0-11.9 0h1.1c-1.5-.2-4 .4-6.2.2.6.1 1.3.1 1.9 0-.8.1-3.1-.2-4 0l1.4.1c-1.4.1-3.2.2-5 .2 3.5.4 6.6 0 9.8 0h-.1l-.8-.1c1.8-.1 3.7-.1 5.5 0 3.3 0 6.7 0 10-.1h36.5c2.9.2 5.9 0 8.8-.1 1.3 0 0 .2 0 .8.1-.2.2-.3.3-.4-1.4 2.9-5.5 6-5.5 9.8 0 0-.2.2.1-.2-.5.8-3.3 5.7-2.9 4.7-4.7 9-11.6 19.1-15.5 26.8-.2.2.1-.3.3-.7-.7 1.2-2.1 4.2-2.6 5.4-.3.4-.7 1 .1-.4-2 3.2-3.7 6.6-5.6 9.8l.3-.5c-1 4.1-4.9 8.4-6.8 11.9l.4-.6c-.5 1-1.9 2.6-2.5 3.6-.1.2.2-.4.3-.7-8 12.9-16.3 28.1-24.2 42.3-.3-.6-.6-1.2-1-1.7.1.1.1.2.2.3-2.4-3.8-4.4-7.8-6.9-11.5 1.6 2.9-.4-.3.2.9-.7-1.1-1.6-3-.8-1.6l.1.2c-4.7-3.8-8.3-15.1-11.2-20.2l.2.7-1.1-1.9c-.2-.5-.3-.7.5.6-.5-1.1-1.1-2.2-1.8-3.1 1.6 1.6 0 .8.1 0l.1.3c-1.4-2-2.6-4.2-3.7-6.4l.4 1c-12.4-17.9-25.7-42-35.6-61.8-.5-.8-2.8-5.6-4.1-6.6.9 2.6 3.6 6.9 4.4 9.1l1.6 2.7-.1.1c2.2 3.8 3.1 5.5 5.6 9.9l-.1-.4c.3.5.6 1 .8 1.6.8 1-1.5-2.6-.8-1.7 1.6 4.1 4.1 7.2 6 10.7-.2-.3-.4-.6-.5-.9.6 1.3 2 3.4 2.2 3.9l-.8-1.4c2.3 3.9 5 8.7 7.3 12.4l-.1-.3c1.7 2.8 1.3 2.3 3.1 5.5l-.1-.1c2 3.1 3.3 5.7 5.5 9.1-.8-1.2.5 1.1-.4-.3 1.1 2.1 2.8 4.2 3.7 6.5 1.1 1.4-1.5-2.9-1-2.1.7 2 2.8 4.9 3.8 6.8-.8-1.2 2.1 4.2 2.7 4.4l-1.4-2.4c.8 1.4 1.8 2.6 3 4.9-.1-.2-.6-.8-.9-1.3.3.7.8 1.3 1.1 2-.3-.1-1.7-2.9-2.7-4.4 1.1 2.9 3.3 5.5 4.5 7.8l-.7-.9c.9 1.4 1.5 2.9 2.4 4.2-1.7-2.9-.3-.7-.9-2 2.2 3.5 1 2.2 3.3 6.2-.3-.5-1.1-2.1-.6-1.3.5 1.2 1.2 2.3 1.9 3.4.1-.4 2.7 4 3.5 5.5l-.8-1.1c1.1 2.1 2.9 4.9 4.5 7.7-.4-.8-.9-1.5-1.5-2.2.5 1 1.4 2.5 1.8 3.2-.2-.3-.3-.5-.4-.8l1.7 2.7c.2.5 0 .1-.2-.2.3.6.6.9 1.1 1.7-.4-.3-.7-.8-1-1.2 1.2 2 2.4 3.9 3.4 6 1.4-2.7 6.8-13 7.3-12.9.3 0 4.2-7.4 4-7.2-.5.7-.8 1.1-1.1 1.7zm12-21c-.2.5-.5 1-.8 1.5.2-.5.4-1 .8-1.5zm18.2-32c-.2.5-.5.9-.8 1.3.2-.4.4-.8.8-1.3zm-64.2 28.7l.2.4c.2.6-.2 1.3-.8 1.5-.6.2-1.3-2.1-.7-2.3.5-.2 1 0 1.3.4z"/><path fill="#fff" d="M127.3 127.9c0 .1-.1.1-.2.1.1.2.1.2.2-.1zm4.7-47c.3 0 .6 0 .9.1-.2-.1-.6-.1-.9-.1zm-57.2.4c-2 0 1.5.2 0 0-.2 0 .9.1 0 0zm10.8.4c-.7-.1-1.3-.1-2 0h2c-.1-.1-1.1 0 0 0zm-2.2-.1h-.9c.3.1.6.1.9 0zm12.2.3c-.2 0-.4 0-.6.1-.4.1 3.2-.2.6-.1zm-10.8-.5c.3.1.6.1.9 0h-.9zm7.7 0h-2c.6.1 1.3.1 2 0zm-2 0h-1.3c.4.1.9.1 1.3 0zm-3.6-.1c.5 0 1.1 0 1.6.1l-1.6-.1zm17.2 0c.3 0 2 .1 0 0zm5-.2c.2 0 2.5-.1.3-.1-.2.1-1.9.1-.3.1zm43.4 3.5c.3-.8.7-1.5 1.2-2.2-.1.4-1.1 2.1-1.2 2.2.5-.9-.4.5 0 0zm.5-1.2l.3-.6c0 .3-.1.5-.3.6zm-127.3.9l-.6-1.2.6 1.2zm-1.4-2.2c.1-.4-.1-.8-.5-.9.1.2.4.7.5.9zm89 71.1c0-.5-.2-.2-.6.8l.6-.8zm-8.9 15.1c.2-.5.1-.4-.3.2l.3-.2zm-7.3 13c.3-.5.6-1.1.9-1.7-.6 1-1.1 1.7-.9 1.7zM37.6 32.6c-.4 0-.3.1-.3.1.7 0 .3-.1.3-.1zm7.3-.2c.3.1.6.1.9 0h-.9zm6.8 0c-1.5-.3-3-.2-4.4.1 1.5 0 3.4-.1 4.4-.1-.6-.2-1 0 0 0zm3.6.4c-.2-.1.8-.1-.8 0h.8zm2.6-.1l-.9.1c.2 0 2.3.1.9-.1zm-1.2 0c-.5 0-1.2-.1-.3-.1-1.8 0-1.5.1.3.1z"/><path fill="#fff" d="M52 32.2c-.4 0-.9 0-1.3.1.3-.1 1.4 0 1.3-.1zm11.8.6c-.4-.1-.7-.2-1.1-.1.4 0 .7 0 1.1.1z"/><path fill="#fff" d="M63.4 32.7l1-.1c-.9 0-1 0-1 .1zm-4.4-.3l-1.7.1 2-.1H59zm8.8.4l-.6.1 1-.1h-.4zm2.6 0c-1.4.3 16.8.1 2 .1l-2-.1c-.4.1.8 0 0 0z"/><path fill="#fff" d="M73.4 32.8c-.3 0-.6 0-.9.1.3-.1.6-.2.9-.1zm-7.2-.2c.3.1.5.1.8.1-.3-.1-.5-.2-.8-.1zm-4.5-.1c.6-.1 1.9-.1.7-.2-.2.1-.5.2-.7.2zm9.8.2c.5 0 1.1 0 1.6-.1 3.2 0-3.9.1-1.6.1z"/><path fill="#fff" d="M75 32.7c-.3 0-.5 0-.8-.1.2 0 .5.1.8.1zm-5.6 0c.2 0 .4 0 .6-.1-.8-.2-1-.1-.6.1.2 0-.1-.1 0 0zm11.2-.7c-.1.1-2.9.4-2.9.4 1.3.8 3.1-.3.7 0 1.1-.2 2.3-.2 3.4-.2-.4 0-.8-.1-1.2-.2-.1.1.4 0 0 0z"/><path fill="#fff" d="M76.7 32.6h-.4c.9.1 1.7.1 2.6 0h-2.2zm-2.5 0c.4-.1 1.4-.1.8-.2s-1.1 0-1.7.1c2.7 0-.7.1.9.1l2-.1c-.7.1-1.3.1-2 .1zm-9.8-.4h-.9c.7 0 1.3.2 2 .2-.4-.1-.7-.2-1.1-.2-.2 0 .6.1 0 0zm5 .2h1.8c-.6-.1-1.2-.1-1.8 0zm9.7.3l-.3.1 1.1-.2-.8.1zm2.3-.1c-.3.2-.1.2.5.1l-.5-.1zm18.2 64.7l-.2.5c0-.2.1-.4.2-.5zm1.9-3.3c-.1 0-.1.1 0 0zm33.8-60.9l-.9 1.2c.4-.4.7-.9.9-1.2zm-18.9 33.8c0-.1.7-1.8 0 0 0-.1.1-.3 0 0zm.2.6l-.6.8c.2-.2.4-.4.6-.8zm-27.2 47.7l-.2.6c.4-.9.2-.5.2-.6zM105 32.6c.7 0 1.2.1 1.6.1-.6-.2-1.1-.2-1.6-.1zm-5.6 62.8c0 .1-.1.3-.2.4.2-.3.3-.4.2-.4zM50.9 56.6c-.1-.1-.1-.1-.1-.2 0 .1 0 .2.1.2zM40.8 37.4c.2.3.3.5.5.8-.1-.3-.3-.6-.5-.8zm49.1-4.8h.6c0 .1-.2.1-.6 0zM71.2 91.3c-.4-.6-.2-.4 0 0zM129 46.2l.8-1.5c-.6.4-.5.7-.8 1.5z"/><path fill="#fff" d="M95.1 105.1l.7-1c-.6 1.4-1.2 2.3-.5 1.3-.4-.6 2.2-4.3 2.7-5.2l-.2.4c1.9-3 3.6-6.1 5.1-9.3.3-.4-.1.6-.6 1.4.9-.9.5-1 2-3.2l-.6 1.1 1.8-2.7s-1.6 2-1 1c4.7-7.1 7.7-14.2 12.1-22.2-.2.3-.4.6-.6.8 0 .1 1.2-2.2.9-1.4 1.5-1.5-1.1 1.5-.4 1.5 0-1.2 4.6-8 5.2-9.2-.2.4-.1.5.2.3L120 62c.9-1.6 2.6-4.3 3.7-6.5.1 0 0 .2-.7 1.4.9-1.2.7-1.8 1.6-3-.2.2-.3.4-.3.6.3-.7.7-1.3 1.1-1.9l-.2.3c1.5-2.5 5.2-9.1 4.8-8.3 2-2.7 2.9-5.3 4.9-8.7l-.5.7c1.2-1.9 1.8-3.6 2.9-5.1-2.4.5-4.8.8-7.2.8 1.7-.4 3.5-.6 5.3-.7h-1.7c-.5-.1.7-.1 1.1-.1-.6 0-5 .6-5.3.3l3.3-.2c-.3-.5-3.7 1.4-3.7.1-.8.1-1.5.1-2.3.1l.9-.1c-3.9-.3-5.8.4-7.3.2-.7 0-3.7 0-2.1.1-4.3 0-8.6.2-12.9.2-1.3-.1 1.5 0 .5-.2-.1.1-1.7.1-2.6.2.3.1 2.2 0 3.1 0 0 1-10.4.1-11.1.5.9-.8 2-.8 3.4 0l-1.2-.1c.7-.1 1.3-.1 2 0-3-.2-6.1-.2-9.1 0 1.9.7-3.1.2-3.9.2.5.1.9.1 1.4 0-.6.1-2.4-.2-3.1 0l1.1.1c-1.1.1-2.5.2-3.8.2 2.5.4 5.3 0 7.5 0h-.1l-.6-.1c4.4-.7 6.5.1 11.7-.1h27.7c.1 0 7.6.4 6.6.4l.2-.2c-3.1 9.4-12.1 25-18.1 31 0-.2.1-.3.2-.5-.4.7-2.8 5.2-1.9 3.8-1.6 2.4-3 4.9-4.3 7.5l.2-.4c-1.1 3.4-3.6 6.2-5.2 9l.3-.5c-.6.9-1.3 1.8-2 2.7 0-.2.1-.3.2-.5-3.4 4.9-5.6 9.8-8.9 15.6-1.6 2.8-9.3 16.7-10.1 15.2l.2.2c-1.2-1.9-5.8-9.3-5.2-8-.5-.9-1.2-2.3-.6-1.2l.1.2c-3.5-2.7-6.4-11.8-8.6-15.4l.1.5-.8-1.4c-.2-.4-.2-.6.4.4-.4-.9-.9-1.7-1.4-2.4 1.4 1.5 0 .4.1 0l.1.2c-1-1.6-1.9-3.3-2.8-4.9l.3.8C58.3 70.4 50 52.3 40.3 37.9c-.4-.8-2-4.1-3-5.1 1 2.4 2.1 4.7 3.3 7l1.3 2-.1-.1c1.6 2.8 4 6.2 4.8 8.5.6.7-1.1-2-.6-1.3.8 2 4.4 5.8 4.4 8.2-1-2 1.2 2 1.3 2.2l-.6-1.1c1.8 2.9 3.8 6.6 5.6 9.4l-.1-.2c1.3 2.2 1 1.8 2.4 4.2l-.1-.1c1.4 2.3 2.7 4.5 4.1 6.9-.1-.1-.3-.2-.4-.2 1 1.6 1.9 3.3 2.8 5 .9 1-1.2-2.2-.7-1.6.8 1.8 1.7 3.5 2.8 5.2-.1-.2-.2-.3-.3-.4.7 1.3 1.4 2.5 2.3 3.7l-1.1-1.8c.9 1.2 1.6 2.4 2.3 3.7-.1-.1-.4-.6-.7-1l.9 1.5c-.2-.1-1.3-2.2-2.1-3.3 1 2.1 2.2 4 3.6 5.9l-.5-.7c.7 1.1 1.2 2.2 1.8 3.2-1.3-2.2-.2-.6-.7-1.5 1.7 2.7.7 1.7 2.5 4.8-.3-.4-.8-1.6-.4-1 .4.9.9 1.8 1.4 2.6 1 1.3 2 2.8 2.8 4.3l-.6-.8.7 1.1-.2-.2c1.1 1.6 2.1 3.2 3 4.9-.2-.6-.6-1.2-1.1-1.6.4.8 1.1 1.9 1.4 2.4l-.3-.6c.8 1 1.4 2.1 2 3.2-.2-.1-.2 0-.8-.9.9 1.7 1.8 3.3 2.9 4.9l5.7-9.9c-.2.2 4.9-8.7 3.1-4.2zm9.2-16l-.6 1.2c0-.5.2-.9.6-1.2zm13.8-24.5c-.2.4-.4.7-.6 1 .1-.3.3-.7.6-1zm-23.7-32c-.1 0 1.9-.4 0 0-.2 0 .5-.1 0 0zM69.2 86.4l.1.3c-.4-.7-.2-.4-.1-.3zm47.4-18.9z"/><path fill="#fff" d="M119.9 31.6c.2 0 .5 0 .7.1-.2-.1-.4-.2-.7-.1zm-35.3.8c-.5-.1-1-.1-1.5 0h1.5c-.1-.1-.8 0 0 0zm-1.6-.1h-.7c-.1.1.2.1.7 0zm9.3.3c-.1 0-.3 0-.4.1-.4.1 2.3-.1.4-.1zm-8.3-.5c.2.1.5.1.7 0H84zm5.9.1c-.5-.1-1-.1-1.5-.1.5 0 1 .1 1.5.1zm-4.3-.2c.4.1.8.2 1.2.1l-1.2-.1zm13.1-.1c.5 0 1 .1 0 0zm3.8-.1c.1 0 1.9-.1.2-.1-.1.1-1.4.1-.2.1zm33.3 2.9c.4-.7.6-1.3 1-1.9.1-.2-1.3 2-1 1.9zm-96.7-.5l-.4-.9c.1.3.2.6.4.9zM38 32.6c.1-.3-.1-.6-.4-.7.2.2.4.4.4.7zm67.9 54.2c0-.4-.2-.2-.5.6l.5-.6zm-6.8 11.6l.1-.2-.3.3.2-.1zm-5.5 9.8c.2-.4.5-.9.7-1.3-.5.9-.9 1.3-.7 1.3z"/><path fill="#fff" d="M88.1 41.3l52.3 90.6H35.7l52.4-90.6m0-41L.3 152.5H176L88.1.3z"/><path fill="none" stroke="#fff" d="M88.1 41.3l52.3 90.6H35.7l52.4-90.6m0-41L.3 152.5H176L88.1.3z"/><path fill="#fff" d="M215 57.8c1.1-.1 9.9-1.3 9.9.1-6.2 10.7-10.3 23.1-15.1 34.5-2.8 6.5-7.5 14.8-7.8 21.2-.1 1.4-.5 2.7-1.1 3.8 4.4.6 3.8-6.1 6.6-6.1-.9 1.7-1.3 4.1-2.7 5.6 0-1 6.1-10.1 7-12.3-.2.4-.1.6.2.5 1.4-7.4 18-54.5 29.4-48.5 4.1 2.2.3 5.2-2.6 10.7-4.2 7.7-8.3 15.4-12.1 23.3-1.1 2.3-2.1 5-3.4 7.2-1.2 1.9-3.7 2.3-4.4 4.3 0 2 2.9 4.5 5.5 4.5-.1 1.3-.4 2.6-.8 3.8.6-.9 2.1-1.8 2.1-3.3 1.6 2.5-2.3 6.7-2.8 10 4.4-7.5 3.2-9.4 10.9-10.9 4.4-.8 10.1-.6 14.1-.7 4.6-.2 14.3-.1 16.7-4-4.7 0-10.1.2-13.9-.3 2.9-.1 6.1-.1 8.5-1.7-.5.4-.7 1-.7 1.6 7.8-3.1 9.5-16.6 13.4-23.2-.7 2.1-1.6 4.3-2.3 6.4 2.3 0 9.5-21.1 10.7-23.3 0 6.9 0 19.9 2.8 24.8 0-.7.2-1.3.6-1.8.1 1.5.4 2.9 1 4.3-.1-1 .2-4 0-5.4.1.2 1.9 1.9 2.1 2.2-.8-7 12.6-15.5 18-20 0 3.9-19.8 47.3-19 47.3.3 0 2.4-5.5 3.3-6.3-.8 1.8-1.5 3.6-2.1 5.4-.1 0 .9-.3 1.1-.5 0 1.5-1.8 4.9-2.3 6 9.6-15.7 16.5-34.4 24.2-51.3 2.6-.9 7.9-5.4 11.8-6.8-2.9 1.9-6.6 4.2-8.4 7 3.8-2.5 7.7-5.3 11.7-7.4-1.9 1.8-7.8 4.3-9.2 7 2.4-1.3 7.3-6 10.1-6-3.3 6.6-8.1 21.9-15.2 24.1 5.6-.9 1.7 2.5-.2 6.4s-4 8-5.5 12.1c.1-1.2.5-1.7 1.4-1.6 0 2.2-2.1 5.3-3.1 6.9.8-1.1 1.2-2.4 1.1-3.7-1.7 2.2-2.3 4.3-1 5.7.5-1.3 1.9-5.5 3.4-6.6-1.2 3.7-6.5 10.5-6.5 14.2 1.3-1.5 3-6.1 4.7-7.1.3 2.4-.1 4.8-1.3 6.9 4.8-5.3 7.4-14.8 11.1-21.1-.5 1.2-.9 2.7-1.3 3.9 1.6 0 5.1-12.4 6.5-13.9 2-2 3.1-1.7 5.8-3.1 9.8-5.2 19.3-9.3 27.5-16.7-.8 1.7-3.3 3.9-4 5.1 8.9-5.5 12.5-20.8 1.3-23.4-13.1-3-31.4 10.5-40.7 18.3 1.5-3.3 4.1-7.3 3.7-11-.7.6-1.6.9-2.5 1 .5-.8.6-2 1.2-2.8-9.2 2-17.7 16.7-25.7 21.7-.6-6.1-1.7-12.2-2.3-18.3 2.4-.1 6.1-.3 7.8-.9-1.2-.1-2.3-.3-3.5-.6 1.6 0 12.5-1 7.4-1.7 0 .1 11.4-2 11.9-2.2-1.2-1.2-2.6-.6-3.5-1.9 0-.9 3.9-.3 4.3-.3-12.2-4-32.3-.7-46.3-.2-8.2.4-16.6.3-24.9.6-8.1.3-16.8 1.1-25.1 1.3-4.3.1-16.3-1.7-19.8 1.1 2.7 1.6 9.8-.1 13.3.4-1.9-.2-3.8 0-5.7 0 .4.4.8.9 1.2 1.4-3.6 0-7.1.4-10.6 1.1.8.4 2.7 3.2 3.5 3.7 1.2-.2-5-.1-5 .8 6.3 1.4 19.7.4 25.6-1.3zm-7.3 52.2c.8-2.9.3 0 0 0zm12.5-26.3c.9-2.3.1 0 0 0zm.9-1.9c.9-1.6.3 0 0 0zm2.9-6.5c.1-1.6.3 0 0 0zm2.4 22.9c-.4-1.4.1-3 1.3-3.8-.3 1.3-.8 2.6-1.3 3.8zm1.2-4.1c1-1.7.4 0 0 0zm59.8 15.5c0-2.8 1.5-.6 0 0 0-.1.5-.2 0 0zm4.1-13.7c-.3 1.4-.9 2.8-1.7 4 1-3.2 2.3-6.4 3.8-9.4-.2.9-1.1 4.9-2.1 5.4-.9 2.6.2-.1 0 0zm11.6-20.6c0 .1 0-2.4 0 0zm2.6 24.3c1.1-2.2.2 0 0 0zm8.4-4.6c1-1.4.3 0 0 0zm.5-.9c.9-1.4.2 0 0 0zm38.6-42.6c.6 0 .4 1.3 0 0zm-28.9 20.8c-.3.8 0 1.8 0 0zm-2 5c.1-.6 0-2.3 0 0zm23.5-8c-6.4 4.1-13.5 9.2-20.9 11.2 7.5-3.6 15-9.1 22.5-12.8l-1.6 1.6zm4-16.2c.1 1-.7.7-2.3-.9.9-.4 1.7-.1 2.3.9zm-15 2.7c3.6-6.1 17.1-2.8 12.8 5.9-2.8 5.6-17.2 14.9-23.7 14.9 0-4.3 7.6-18.3 10.9-20.8.6-1-.4.3 0 0zm-10 15.8c.5-1.7-.2.2 0 0zm.6-1.1c.1-.8.5-1.6 1.1-2.1-.4.9-.9 3-1.1 2.1zm2.9-5.8c-.2 1.3-.8 2.5-1.7 3.5.1-.4 1-3.5 1.7-3.5 0 .6-.2 0 0 0zm-1.6-2.7c-.3 1.4-1 2.8-2 3.9.1-.5 1.1-3.9 2-3.9-.8 2.3-.1 0 0 0zm-5.1-4c-.2.8-.8.3 0 0zm-23 10.7c-.1.1 1.6-1.8 2-2l-2 2zM311.4 57c-.9 3.2-2.2 6.3-3.9 9.2 1.1-3.1 2.4-6.2 3.9-9.2-.5 1.7-.9 1.6 0 0zm-5.6 2.5c-1.1 1.7-.3 0 0 0zm-2.8 2.9c-.6.8-.8.3 0 0zm2.5-.6c-1.1 1.6-2.6 3-4.3 4.1 1.4-1.3 2.8-2.7 4.3-4.1zM301 64c-.3.6-.7 1-1.3 1.3L301 64zm-1.4 1.5c.1 0-1.8 1.2 0 0zm-2.7.9c-1.2 1.8-2.8 3.3-4.7 4.4 1.4-1.6 3-3.1 4.7-4.4zm-4.8 4.6c-1.5 1.5-1.1.5 0 0zm-1.2.9c.4 0-1.6 2.9 0 0zm7.4-5.3c-2.3 3.1-6.3 6.6-9.7 9.4 2.7-3.2 6.5-6.3 9.7-9.4zm-9.9 9.3c.1 1-.5 1.6-1.8 2-.1-.9.5-1.6 1.8-2zm-2.3 6.1c-1 .7 0-.4 0 0zm-2.3-16.5c0 3.4.5 7.2.7 10.7-.9-3.5-1.1-7.1-.7-10.7zm1.3-10.9c.6.1 1.3.3 1.9.5-1.1.6-2.4.5-3.4-.2 0-.3 1.4-.4 1.5-.3zm-2.9 17.2c0 2 .5 4.5.6 6.8-.6-2.2-.8-4.5-.6-6.8zm-47.5 32.4c-1-.6-1.7.3-2.2-.7.3 0 6.1-.1 2.2.7zm1.6-.2c.4-.3.9-.4 1.4-.3-.2.6-.6.2-1.4.3zm24.4-4.7c-.8-1.1.1-3.3 1.7-5.2-.4 1.8-1 3.5-1.7 5.2zm5.7-21.6c-1.3-.2-2.5-.9-3.2-2.1 1.4-.4 2.9-.5 4.3-.3l-1.1 2.4c-.8 0 .3-.8 0 0zm5.3 0c.1-.6 0-2.5 0 0zm-3.6 0c2-5.6 3.4-8.7 4.2-9.6-2.3 6.2-3.7 9.4-4.2 9.6zm4.4-9.7c.2-1 .5-2 1-2.9 0 1.1-.3 2.1-1 2.9zm6.4-11.7c.5 0-1.9 7.1-3.4 8 .9-2.7 2-5.4 3.4-8 .2 0-1.2 2.3 0 0zm-27.2 4.4c-.4.5-.5 1-.5 1.6 4.8-7.6 16.5-5.7 25.1-5.7-2.1 3.6-7 18.3-10.3 17.9.7-.3 1.3-.6 1.9-1-4.6-.3-18.5-3.9-22.4-1.3.3-1.3 3.8-11.5 6.2-11.5 0 .3-.6 0 0 0zm-6.3 19.7c6.9-.1 13.9-.8 20.7-2.2-1.4 3.4-7.3 11.8-5.4 15.6 1.2 0 3.2-7.4 3.9-9-.9 3.7-2.9 12.7-6.1 14.3-2.1 1.1-8.2-.6-10.5-.6-4.9 0-10.5.6-15.8-.1 0-5.7 6.6-19.8 13.2-18zm-19-10.8c.7-2 .1-.1 0 0zm4.9-11.6c.1-.4.4 3-1.1 3 0-1.1.4-2.1 1.1-3zm-1.6 4c0 .2 0 1.9 0 0zm-.4 1.3c-.7 1.9-.5.2 0 0zm-18-11c5.3-.8 11.3-.5 17-1.2-4.8 1.7-14.2 2-19.2 1.1l2.2.1zm-17.9 3c-1.8 1 .7-.8 2.7-.7l-2.7.7zm18 1.6c-1 .1-13.7 2-14.2.5 7.9-.8 19.5-2.7 26.7-.6-4.3 0-8.4 1-12.5.1zm-1.6 54.2c-.1-.7.7-1.2-.3-1.2-.5 1.1.2.9.3 1.2zm40.3-45.8c0-2.1-.1-.4 0 0zM268.5 86c.7-1.1.5-2.6 0 0zm169.7 20.1c-.8-.5-1.8-.7-2.7-.3.9.3 4.1-.3 2.7.3zm-84.8-16c0 4.7-3.3 11-5.5 15.2-1.9 3.7-1.9-.1-3.5 5 1.5-1.5 1.9-.7 3-1.2-5.4 7.5 13.3 4.3 17.3 4.3-.9.8-1.1 1.5-.5 2.2 2-3.6 6.5-2.6 10.6-1.9 0 0-1.1.7-1.2.8.4-.4.9-.4 1.3 0 .1.1.2.2.2.3-2.1 0-4.5.4-6.5.4 0 1.6 32.5-1.1 33.7-1.3-3.2-.5-7.6-.2-11.2-.1 3.2-.8 6.1-.5 9.4-.7 6.7-.3 29.7.7 33.1-4.5-2.9 0-6.4.9-8.5-.2 1.4.1 8.7-.2 8.7-1.1-5.4-1.1-16.7-1.1-22.1.7 1.9-.1 4.9 0 6.2-.1-1.2.2-13 2.4-13.6.6 2.5-.1 5.2-.3 7-1.1-4.6.4-9.3.6-14 .7 6.2-1.9 24 1.2 28-3.8-19 1.8-38 3.4-57 3.4 4.9-9.9 31.8 2.5 37.6-7.6-4.7 0-10.1.2-13.9-.3 3.6-.1 7.1-.7 10.5-2-9.7-.4-19.1.5-28.7-.7 0-7.4 6.8-16.5 12.6-18.4 6.7-2.2 14.6-.4 21.5-2.1-.4-.2-3-2.4-3.3-2.5 1.6-.2 3.3-.3 4.9-.3.2-1.1-.5-1.4-2.2-.8-.2.1 1.9-1 1.9-1.1-4.6-.3-18.5-3.9-22.4-1.3.3-1.3 3.9-11.3 6.3-11.3-.4.5-.5 1-.5 1.6 5.8-10.5 30.1-4.5 40.3-7.3h-3.5c.7-.4 12.5-1.5 7.3-2.2 0 .1 11.4-2 11.9-2.2-1.2-1.6-2.5-.4-3.5-1.9 0-.9 3.9-.3 4.3-.3-9.3-2.8-24.3-.8-35-.7-8.1.1-20.2-1-27.6 2.6.4 0 1.5.3 2.4.4-.5 2.9-3.5 4.2-5.5 5.8 3.6 1.6-2.8 9.6-4.4 12.6-4.2 7.7-8.2 15.3-11.9 23.2-1 2.1-1.9 4.3-3 6.4s-3.3 1.5-4.1 3.6c0 2.1 2.9 4.6 5.5 4.6 0 4.8-12 2.7-12 1.8.9-4.5 1.7-2.1 1.2-1.7.4-1.5 1.3-3.6 2.4-4.1 0-1.8 3.4-6.1 3.4-7.9-.3-3.2 4.3-9.2 6.1-13.2 4-8.7 8.4-17.9 11.1-27.1-.8.5-.3.8-1.5.8.5-1 1.3-3 1.8-3.8.5 1.2.1 1 .7 1.7 0-3.7-.6-1-.3-5-.9 1.6-2.5 5.3-4.1 6.8l-1-.7c.7-1.8 1.2-3.6 1.7-5.5-.9.8-1.5 1.8-1.7 3l-1.1-1c-3.3 7.9-6.8 15.7-10.3 23.4-1.8 4.2-4.7 15-8.8 17.1-.1.3.5-.3 0 0zm-6.2 21.6c.8.2.2.7 0 0zm50.2-3.3c1 .3 1.2-.2 1.8.4-.4.1-2.9-.4-1.8-.4zm-17 5.2c-1.8 0-3.3.2-5.2 0 1.4-.5 3.7-.2 5.2 0zm10.7-4.9c2 0-2 1.3 0 0 .5 0-.3.2 0 0zm-3.6.3c-.8.1-2.2 1.2-3.7.1l3.7-.1zm-10.2.4c1.1-.1 6.2-.7 6.2.2-3.5-.1-6.6.2-9.8.1 1.1-.3 2.3-.4 3.6-.3zm1.9-7.5c-.4.3-.9.4-1.4.3.2-.5.6-.2 1.4-.3zm-1.7-.3c0 1.7-3.3.3-3.5 0h3.5zm45.2-48.5c2-.2 4.1-.4 5.7.2-1.3 0-9.7.3-5.7-.2zm-10.6-1.5c-.4 0-1.3.5-1.9 0h1.9zm-8.8 2.3c.4 0 1.5-.5 2.1 0h-2.1zm3.7 0c-.3.1 1.7-1.6 1.7-.1l-1.7.1zm-.9-5.7c1 .2 1.8-.2 2.4.3-10.9.1.1.2-2.4-.3zm-.8 0c0 1.1-.6.3 0 0zm-5.3.4c2.6 0 4.1-1.4 4.6.5-1.7.3-3.5-.4-4.6-.5zm-8.4.3c.2 1.7-.6.2 0 0zm-22.1 42.6c-.9 1.6-.5.1 0 0zm-1.1 1.1c-.2.6.2 2.8-1.6 3.8.4-1.3 1-2.6 1.6-3.8zm-1.4 12.9c.1.6 2.3 2.5-.8 1.9l.8-1.9zm4.5-51.9c-.6.8-1.5.5 0 0zm-2.4 5c.2-1.3.8-2.5 1.7-3.5-.5 1.8-2.2 4.1-2.2 6-.8-1 .1-1.4.5-2.5.6-2.1-.2.5 0 0zm-.9 2.7c.2 1.4-.1 2.1-1 2-.1-.8.3-1.6 1-2 0 .3-.3 0 0 0zm-17.7 36c-1.4.2 0 .3 0 0zm74.8 14.5c.8-.3 1.2.5 1.3-.5-1.1-.3-.9.4-1.3.5zm-73.8 2.9c1.1 1.1 6.2.6 9.2.6-2.2-.7-6.3-.3-9.2-.6zm5.6-13c-.7.5-1.1 1.3-1.2 2.1l1.2-2.1zm53.6 11.3c3.8-.1 9.7.3 12.9-1.6-4.8.5-12 .4-15.9 1.9.9 0 1.9-.1 3-.3zm-8.2.3c.8.1 2.8.3 4.1.3-1-.6-2.7-.3-4.1-.3zm-11.5-50c.9-.6.4-1.5 0 0zM225.6 169c.6-1 .2-1.8 0 0zm2.4-5.2c-.3.5.9-1.4 1-1.8l-1 1.8zm24-29c-2 0 2.5 1.3 0 0-.3.1.4.3 0 0zm-25.7 32.3c.3 0 .2-.4 0 0zm-1.4 3.4c.7-1 .2-1.4 0 0zm44.1-36.7c-.3-.9-.4-1.9-.5-2.9 0-.6-15.1-.6-16.4-.6-6.5 0-10.3-1.2-13.9 2.6-4.9 5.2-2.9 8.9-9.8 10.3-2 .4-4.2.1-6.3.1-1.8 0-.6-3-2-3 1.2 5.6-5.4 1.6-5.4 4.4 0-2 4.5 5.8 1.3 5.8l.3-3.3c-2 5.6-2.5 11.2-8.3 15.3-6.4 4.5-10.3 2.3-9.8-5.5.7-12.6 13.9-18 23.1-21.7-.5 0-2.9.2-2.8.2 3.8-.6 8.9-1.6 12-2.1-2.6.1-5.2.2-7.8.4 2.3-1.2 4.8-1.8 7.4-1.7-6-7.5-25.3 5.8-30.1 10.5-5.8 5.8-14.7 23.3-2.8 28.2 12.1 4.9 18-11.3 22.6-18.1 3-4.4 4.4-3.8 10.3-3.8-2 5-5.8 10.3-7 15-.1.3-2.2 4.6.9 1.6.1 1-.9 2.3-.2 3.2.2-.4.6-.6 1-.6 0 .3-.6 2.3-.2 2.3 2.2 0 9.4-19.1 11-21.6.4-.1 4.7-1.3 6.7-1.1.3-.2-.6-.2-.5-.6.2 0 4 .1 4-.7-1 0-4.7.4-4.7-.4 2-.4 5.5-.6 7.1-.9-1.2-.1-3.1-.5-4-.6.8.3 1.7.2 2.5-.1-2.5-.6-5.4-.3-7.7-.9 2.9-8.7 5.7-7.3 12.8-8-.7-.8-1.6-.9-2.9-.4 6.2-.7 13.3-1 20.1-1.3 0 0-4.1.3 0 0zm-3.1-1.5c-1.8.1 8.4 2.1-2.2.2.7-.1 1.5-.2 2.2-.2zm-43.5-.2c-1 .5-2.2.8-3.3 1 1-.4 2.1-.7 3.3-1zm-15.3 9.3c-.8.9-9.8 14.5-9.4 14.5 1.6-5.9 4.3-11.1 9.4-14.5zm-9.4 4.6c2.7-3.5 5.2-6 7.6-7.4 0 1-7.7 7.9-8.1 8.3 0-.3.2-.6.5-.9 2.7-3.4-.3.4 0 0zm-.8 1.3c-.8 1.2-.3 0 0 0zm2.5-1.6c0 1.7-3.3 5.4-4 6.2.8-2.3 2.2-4.4 4-6.2 0 .6-1.6 1.5 0 0zm-1.9 11.2c0 .4-.5.5 0 0zm-3.5-1.4c-.4 3.5-.4 6.9-.1 10.4-2.6-4.8-1-11.7 1.4-16-.5 1.4-1 4.5-1.3 5.6zm1.7 10.3c-1.3-2.9-1.1-5.7-.3-8.7-.1 2.9 0 5.9.3 8.7zm1.2-.9c.8.6 1.6 1.2 2.3 1.9-1.1-.2-1.5-1.2-2.3-1.9zm2 3.6c-1.1 0-1.7-.3-1.6-1 3.4 1.9 1.7 1.2 1.6 1zm3.6-.9h-2.1c0-1.5 4.5.7 2.1 0zm6.1-3.9c1.2-1.4 1.9-2.8 3.7-3.9-.5.8-2.6 4-3.7 3.9zm5.1-1.5c-1.1 1.2-2.2 2.4-3.5 3.4-.5.5 3.8-3.7 3.5-3.4zm.9-4.1c-.4-.1-.8-1.4.7-1.4-.2.5-.4 1-.7 1.4zm5-13.3c.8 0 0 1 0 0 .1.1 0 .3 0 0zm-.4 0c0 .2-2.2.7 0 0zm-.4 2.3c0 .4-.5.5 0 0zm-1.5 2l-.1-2c1.8 1.5 1.7 4.7-.7 6.7.4-1.5.7-3.1.8-4.7zm1.3 3.8c.2-1.5.4-3.7 1.5-4.9-.4 1.7-.9 3.4-1.5 4.9zm1.6-5.4c-.7-.3 0-.3 0 0zm1.3-2.4c0-.2 1.3-.5 0 0zm1.3 2.4c0-.3.8-.4 0 0 0 0 .2 0 0 0zm3.9 0c-1.1 0-2.1 0-3.1-.1 1 0 2 0 3.1.1zm20.4-12.7c-1.2 0-2.4-.1-3.6-.4.4 0 4.5.5 3.6.4zm46-3.6c0-8.5-26.7 6.2-29.2 9.2.7-.4 1.9-.9 2.6-1.3-.5.6-1.6 2.2-2.2 2.8 3.1.6 8.6-4.4 12.7-5.8 0 6.1-9.3 16.7-12.1 22.8-1.8 3.9-3.2 7.2-3.2 11.2 1.5-3.1 2.5-2.6 3.4-2.6-.5 0 5.6-3.6 5.4-3.4 4.9-2.8 9.5-5 13.9-8.5 7-5.5 16.9-15.4 8.7-24.4 0-.5 2.3 2.6 0 0zm.3 1.8c-.4-.2 0-.3 0 0zm-.4 2.4c0 .8.4 1.5 0 2.1-2.2-7.6.1-.6 0-2.1zm-1.2-2.1c-.4.1-.8-.1-1-.5.4 0 .8.2 1 .5zm-11.3 5.3c-.8 1.4-.4 0 0 0zM269.1 164c0-.5.6-.3 0 0zm.3-2.4c-.2.3 1.3-.7 0 0zm.9-2.4c.4-.2 1.6-1.6 3.4-1.7-.9.9-2.1 1.5-3.4 1.7zm15.7-8.4c.4-.4.9-.5 0 0zm1.1-.8c.5-1.2.5 0 0 0zm-2.1-.5c-.8-.8-1.3-.9-1.4-.2-.8 1-7.4 4.3-9.3 6.6 1.9 0 6.6-3.3 8.1-4.4 0 3.1-8.7 5.2-11 5.5 0-3.6 9.8-21.1 12.9-22.6 10.6-5.1 5.6 11 .7 15.1-.5-.3 4.2-3.5 0 0zm6.9-10.6c-.2-.8-.9-3.1-1.1-3.8-.1-.1 2.3 3.8 1.1 3.8zm.9 5.7c0 .1.1-2.9.7-2.9.1.8 0 2.5-.7 2.9zm1.6-10.4c.7.7 1 1.6 1 2.6-.7-.7-1-1.7-1-2.6zm14.3-.2c.2-.6.3-1.2.3-1.8-1.6 1.3-2.7 3.2-3.1 5.2 1.2-2.7 2.1-5.5 2.7-8.4-.4.6-1 1.1-1.5 1.6l.2-1.6c-7.1 10.3-13 26.7-16 39.2 1.6 1.8.5-5 .5 1.7 8.7-4.5 14.5-27.2 16.9-35.9zm-15 34.1c.1-.2-2.5-.2.5-1.4.9-.2.7.3-.5 1.4zm5.2-12.2c0-2.9 1.3 0 0 0 0-.1.2 0 0 0zm35.4-23.2c-.3-.1-1 .6-1.4.6.2-.6.5-1.1.8-1.6-4.7.9-11.1 10-15.1 12.8-.4-5.1-2.4-10.9-1.8-15.7-.1 0-1.9 2.4-1.9 2.4 0-.1 0-.3.1-.4-1.8 2.5-13.8 22.8-11.3 25.3.8 0 2-4.3 2.3-5.4-1 3.3-2.3 6.5-3.8 9.6.5-.8 2.2-3.5 2.5-4.1-.4 1.1-.7 2.2-.9 3.3 2.9-3.8 4.3-8.6 6.3-12.8-.9 1-1.3 2.4-1.3 3.7.9 0 6-13.3 6.2-13.8.7 4.3.4 11.1 1.8 14.4-2-3.6 5.4 3.8.9 1.5 0-.6 0-2.2-.1-3.1l1.1 1.3c-.9-4.2 7.6-9.1 10.6-11.9 0 2.2-11.5 27.9-11.2 27.9 0 0 1.7-3.2 1.9-3.6-.5 1.1-.8 2.4-1.1 3.4 0-.7.2-.9.5-.6 0 1-1.1 2.7-1.4 3.5 2.2-4.8 4.6-9.5 6.8-14.4 2.5-5.7 10.5-16.3 9.5-22.3zM310 146.5c.1-.4 0-1.3 0 0zm-2.2 0c1.2-3.3 2-5.2 2.5-5.7-1.3 3.7-2.2 5.6-2.5 5.7zm3.2-7.3c.2 1.1-.1 1.6-.7 1.6.1-.3.7-1.7.7-1.6zm1.2-.6c.7-1.8 1.5-3.6 2.4-5.3-.4 1.2-1.2 4.5-2.4 5.3zm3.9 5.8c-.3-.4-.5-1.6.2-.9-1.2 0-1.1 1.2.3 3.5-1 0-1.2-.8-.5-2.6zm.5 4.9c-.1 0-.1-1.5 0 0zm.7-3.6c-.2-2.1-.3-4.3-.3-6.4.3 2.1.4 4.2.3 6.4zm1.9 19.7c.7-1.8.1 0 0 0zm2.5-8.1c-.2.8-.6 1.6-1 2.3.6-1.6 1.7-4.1 2.3-5.5-.3.8-.7 2.5-1.3 3.2-.6 1.6.1-.1 0 0zm6.8-12.2s0-1.6 0 0zm-.1-7.6c-.5.4-.4 0 0 0zm-1.9 1.8c-.1.1-1 .5 0 0zm-1.6.5c-.8.9-1.7 1.8-2.7 2.6 0-1.3.9-2.2 2.7-2.6zm-2.9 2.7c-.4.4-1 .6 0 0zm-.7.6c.2 0-1.1 1.5 0 0zm-2.5 3.5c0-.6.5-1.2 1.1-1.2 0 .6-.5 1.1-1.1 1.2zm2.4-2.1l-1.3 1.1c1.4-1.4 4.4-4.2 5.9-5.6-1.5 1.6-3 3.1-4.6 4.5zm4.6-3.3s1-1.1 1.2-1.2l-1.2 1.2zm.9-2c1.3-1.5.6-.4 0 0zm.8.4c.5-.5 1.7-1.9 2.4-2.5 0 1.2-.8 2-2.4 2.5zm2.6-3.7c-.3.6-.2.2 0 0zm1.2 3.9c.4-1.9 1.1-3.7 2.1-5.4-.3.9-1 2.8-2.1 5.4zm-23.2 11.6c.4-.8.2-1.5 0 0zm36.1-13c.4-.3.2-.8 0 0zm38.3 5.1c.4-.5.8-1 1-1.6l-1 1.6zm-3-2.5c.1 0 .3-1.2 0 0zm3.1-6.4c-1 1.7-1.8 3.5-2.5 5.3 1.5-2.4 2.7-4.9 3.7-7.5-.9 0-1.3.7-1.2 2.2-1.7 3.2.6-1.4 0 0zm-2.2 13c-.6.7-3.2 6.1-3.8 6.1 3.6-8.1 8.2-15.7 12.4-23.5-4.4 4.1-6 9.2-9.4 14.8.9-2 7.9-17 8.5-17-3.2 4.4-5.9 9.6-8.9 14.4-1.9.8-6.5 13-8.3 16.3-.6-7.4-.8-14.8-1.6-22.2-.3-.1-.4 0-.3.4-1.2-1.3-.1-2.8-1.9-2.8 0-1.1.5-1.6 1.6-1.3.3-.2-1.3.1-.9-.8.2 0 4.2.3 4.2-.6.1-.5-.3-.6-1.1-.3 0 .3 6.7-1.1 7.1-1.2-.7-.7-1.7-.3-2.1-1.1 0 0 2.9-.5 2.6-.5-10.9 0-26.1-1.8-36.8 1.7.5 0 1 .1 1.5.2-.4.3-2.8 2.9-3.2 3.4 3.1 3-11.7 22.9-13.8 27.1 0 2.5 3.9 1.2 2.9 4.8 4.1-4.6.6 2.6-.3 4 4.4-7.8 5.5-5.8 14.2-6.7 3-.3 6-.8 9-1.3-1.5 1.2-2 2.5-1.5 3.9-.5 1.6 1.9-4.8 2.9-4.8-.5 2.4-1.2 4.3-1.9 6.8.2-.9.6-1.4 1.3-1.3 0 .4-1.9 3.3-1.1 3.3 2.1-3.6 9.7-15.3 9.6-19.5 1.4-.7 4-6.9 5.2-9.2.4 4.3-.5 21.6 2 24.1 2.7-1.1.5 1.3.5 2.5 3.8 0 9.9-16.7 11.4-19.7zm-1-2.2c-.6 2.1-.3.1 0 0zm-49 12.6c0-.8.2-1.6.7-2.3l-.7 2.3zm.7-2.4c.6-.9.2 0 0 0zm23.5-22.7c-2.2-.5 0-.2 0 0zm-1.9-3.3c0 .6-.4 0 0 0zm-.8 0c0 .8-1.2.7-2.4.4l2.4-.4c0 .1-.7.1 0 0zm-7.7.7c0-.3 1.5-.3 0 0zm-8.8 31.2c-2.6-1.2 1.6-.3 0 0zm17.5-1.3c-.1-1 .3-2 1.1-2.6l-1.1 2.6zm4.3-7.9c-.3 1-.8 1.9-1.4 2.7.4-.9.9-1.8 1.4-2.7zm.1 3.5c.1-.5 0-1.3 0 0zm0-3.9c.5-1.8 0 0 0 0zm.7 2.5c.4-1.1 0-1.1 0 0zm0-2.8c.4-.8.1 0 0 0zm1 .7c-.6 2 0 .1 0 0zm.9-2c-1.2 1.9.3-.4 0 0zm.5-1c.1-.5.2-.7.4-.7-.2.6-.3.8-.4.7zm-2 1.4c0-3.8 4.6-10.2 6.6-13.1-2 4.5-4.3 8.9-6.6 13.1-.1-.1 2.6-4.8 0 0zm3.5-2.7c0 .4-.4.2 0 0zm1.8-3.8c.6-1.8 1.3-3.6 2.3-5.2-.6 1.9-1.4 3.6-2.3 5.2zm2.2-11c-4.9 8.4-8.8 21.7-15.6 26.7-1.1.8-4.8.1-5.7 0 2.1 0 4.2-.4 6.2-1.2-5.6-.3-11.4.5-16.9-.3 0-13.5 12-10.3 20.4-12-.6-.6-1.2-1.1-1.9-1.5 1 0 1.9-.1 2.9-.2-.1-.2-1.5-.5-1.3-.7.4.2.9.1 1.1-.3-4.5.1-9-.3-13.5-1.1-.3.6 3-6.4 3.9-6.4 0 2 1.3-1.4 3.6-1.9 5.2-1.3 11.7-.6 17.2-1-.2-.3-.3-.2-.4-.1-1.6 2.7 0 0 0 0zm.3-.7c-.5 0-4.3.4-4.3-.3 1.4 0 2.8.1 4.3.3zm.8 0c0-.4.9-.9 0 0-.1 0 .1-.1 0 0zm2 10.8c.1 2.5.4 5.1.4 7.7-.3-2.5-.5-5.1-.4-7.7zm-1.3-5.2c.1-.8-.2-1.2.4-1.5.3 1.8.2 2.3-.4 1.5zm.3 16c0-1.6-.3-3.2-.2-4.9 0 .3.1 4.3.2 4.9zm0-12.5c-.1-2.5.8 11.1.8 13.4-.9-3.7-.9-9.1-.8-13.4zm.8 14.2c.2 1.3.3 2.7.3 4-.2-1.3-.2-2.6-.3-4zm.6 7.2l-.3-2.9c.4.7.2 2.5.3 2.9zm-.3-25.5c1.1 5.9 1.4 11.9 1.1 17.9 0-5.9-.9-12-1.1-17.9zm1.3 21.9c.4-.9.1 0 0 0zm34.9-15.6c-.5-7.7-11-2.8-15.6-4.6 2.8-3.3 8.8-4.3 12.2-6.7-.9.6-1.9.9-2.9.8 1.4-.7 4.1-1.9 5.7-2.6-.5 0-1.8-.1-2.6 0 1.9-1 5.2-2.2 7.1-3.2-6.1.4-12 2.3-17.1 5.6-4.2 2.6-12.9 12.8-2.1 11.1-.3.2-1.2 1.1-1.4 1.3 2.6-1 10.5-4.7 10 .2-.6 5.7-19.6 16.4-24.2 20.3 0 .7 2.8-1.3 3.4-1.6-1 1.2-2.1 2.3-3.3 3.4 0 3.2 13.1-6.9 12.8-6.7-1 1.1-1.5 1.3-1.4.5l2.6-2c-.2.3-.4.6-.5.9 3.9-2.6 16.3-11.7 17.3-16.7zm-3 .8c.3 0 .2.4 0 0zm-.5-3c.7.4 1.3.9 1.8 1.4-1.8-.1-2.4-.6-1.8-1.4zm-.4.9c1.4.1 2.1.6 2 1.5-.8-.3-1.5-.8-2-1.5zm-.5 1.6c.2 0 .4 1.1 0 0zm-1.9-10.6c-1.9 1.3-4 2.4-6.2 3.1 1.1-.7 4.5-3.1 6.2-3.1zm-12.6 8.4c.6.1.5 1.1 0 0zm3.4.6c-1.4 0-2.1-.4-2-1.2.8.1 1.5.6 2 1.2zm-11.1 21.1c2.2-1.5 4.5-3.2 6.8-4.5-1.8 1.6-5.7 4.7-6.8 4.5zm6.5-1c.4-.3 2-1 0 0zm-8.9 5.1c1 0 8.5-6.7 10.7-8-2.9 2.4-6.8 7-10.7 8-.2 0 1.2-.3 0 0zm41.7-35.1c.2-.6.3-1.2.3-1.8-1.6 1.3-2.7 3.2-3.1 5.2 1.2-2.7 2.1-5.5 2.7-8.4-.4.6-.9 1.1-1.5 1.6l.2-1.6c-6.9 10.5-12.9 26.5-15.9 39.1.6.1.9-.3.8-1.3 1.1 0-.3 3.8-.3 2.9 8.6-4.4 14.6-27.2 16.8-35.7zm-15 34.2c.1-.2-2.5-.2.5-1.4.9-.2.7.3-.5 1.4zm5.2-12.3c0-2.9 1.3 0 0 0 0-.1.1 0 0 0zm35.4-17c-.1 1.9-.5 3.8-.9 5.6 0-.8.1-1.9.1-2.5-.6 0-1.8 9.3-3.2 10.5.7-2.7.9-5.6.6-8.4 0 .2-.2 4.5-.9 4.5l.3-3.3c-2 5.6-2.5 11.2-8.3 15.3-6.4 4.5-10.3 2.3-9.8-5.5.7-12.6 13.9-18 23.1-21.7-.5.1-2.9.3-2.8.3 3.8-.6 8.9-1.6 12-2.1-2.6.1-5.2.2-7.8.4 2.3-1.2 4.8-1.8 7.4-1.7-5.8-7.2-24.8 5.4-29.3 9.7-5.8 5.6-12.7 16.2-8 24.6 4.8 8.7 15.4 4.1 20.8-1.9 1.2-1.3 12.2-23.8 6.7-23.8zm-1.5-7.3l3.3-.8c-1.1 1.5-2 .6-3.3.8zm-11.9 8.5c-.8.9-9.8 14.5-9.4 14.5 1.6-6 4.3-11.1 9.4-14.5zm-9.4 4.6c2.7-3.5 5.2-6 7.6-7.4 0 1-7.7 7.9-8.1 8.3 0-.4.2-.7.5-.9 2.7-3.5-.3.3 0 0zm-.8 1.3c-.8 1.1-.3 0 0 0zm-1.4 4.3c.8-2.3 2.2-4.3 3.9-6 0 1.5-4.3 6.4-3.9 6zm2 5.3c0 .5-.3.2 0 0zm-3.5-1.4c-.4 3.4-.4 6.9-.1 10.3-2.6-4.8-1-11.7 1.4-16-.5 1.8-1 3.7-1.3 5.7zm1.7 10.3c-1.3-2.9-1.1-5.7-.3-8.7-.1 2.9 0 5.8.3 8.7zm1.2-.9c.8.6 1.6 1.2 2.3 1.9-1.1-.3-1.5-1.3-2.3-1.9zm2 3.6c-1.1 0-1.7-.3-1.6-1 3.4 1.8 1.8 1.1 1.6 1zm3.6-.9h-2.1c0-1.6 4.5.6 2.1 0zm6.1-3.9c1.2-1.4 1.7-2.8 3.7-3.9-.5.7-2.6 3.9-3.7 3.9zm5.2-1.5c-.9.9-2.8 2.6-3.7 3.4 1-1 3-2.8 3.7-3.4zm.8-4.2c-.4-.1-.8-1.4.7-1.4-.1.5-.4 1-.7 1.4zm4-5.1c.2-2.5.8-4.9 1.8-7.2 0 1.1-.6 3.5-1.8 7.2zm31.5-3.8c-.6.7-3.2 6.1-3.8 6.1 3.6-8.1 8.2-15.7 12.4-23.5-4.5 4.2-5.7 9.4-9.5 14.8.8-2 7.8-17.1 8.5-17.1-3.2 4.4-5.9 9.6-8.9 14.4-1.9.8-6.5 13-8.3 16.3-.6-7.4-.8-14.8-1.6-22.2-.3-.1-.4 0-.3.4-1.3-3.1-2.3-1.9-1.1-5.2-4.9 0-17 29.5-18.2 33.6 1.1-2.3 2.5-5.3 3.8-7.6-1 2.7-1.6 6.6-2.7 9.6.2-.9.6-1.4 1.3-1.3 0 .4-1.9 3.3-1.1 3.3 2.1-3.6 9.7-15.3 9.6-19.5 1.4-.7 4-6.9 5.2-9.2.4 4.4-1.1 20.6 2.5 24.2 2.6-1 .7 1.4.7 2.7 3.7 0 9.8-16.7 11.5-19.8zm-1.5-1.4c0-.5.1-.8.4-.8 0 .6 0 1.3-.4.8zm-21.9 6.1c-.3 1-.8 1.9-1.4 2.7.4-.9.9-1.8 1.4-2.7zm.2 3.6c0-.5 0-1.3 0 0zm.2-4.4c0 .5-.6-.2 0 0zm.6-.3c0 .2 0 1 0 0zm-.1 3.2c.4-1.1 0-1.1 0 0zm.4-1.1c1.1-2.8.1 0 0 0zm1.2-2.3c.2-.7 0-1.2 0 0zm.7-1.7c.1-.5.2-.7.4-.7 0 .6-.1.8-.4.7zm-1.9 1.5c0-3.8 4.6-10.2 6.6-13.1-2 4.5-4.3 8.8-6.6 13.1 0-.1 2.7-4.9 0 0zm3.5-2.8c0 .4-.5.2 0 0zm1.8-3.8c.6-1.8 1.3-3.6 2.3-5.2-.6 1.9-1.4 3.6-2.3 5.2zm5.3-.9c.1 2.5.4 5.1.4 7.7-.3-2.5-.5-5.1-.4-7.7zm-1.3-5.1c.1-.8-.2-1.2.4-1.5.3 1.7.2 2.2-.4 1.5zm.3 16c0-1.6-.3-3.2-.2-4.9 0 .3.2 4.3.2 4.9zm0-12.6c-.1-2.5.8 11.1.8 13.4-.8-3.8-.8-9.1-.8-13.4zm.7 14.8c-.3-2.3.3 2.9.3 3.4-.1-1.1-.2-2.2-.3-3.4zm.7 6.6l-.3-2.9c.4.7.2 2.5.3 2.9zm-.3-25.5c1.1 5.9 1.5 11.9 1.2 17.9 0-5.9-.9-12-1.2-17.9zm1.4 21.8c.3-.8.1 0 0 0zm13.4-26.8c-1.4 2.4-2.6 4.8-3.7 7.4 1.5-2.4 2.7-4.9 3.7-7.4zm-4 8.2c.4-.3-.7 1.5 0 0zm2.6 2.8c.4-.4.7-1 1-1.5l-1 1.5zm22.6-1.8c-4.5-2.4-10.1-.8-15.3-2.5 2.8-3.3 8.8-4.3 12.2-6.7-.9.6-1.9.9-2.9.8 1.4-.7 4.1-1.9 5.7-2.6-.5 0-1.8-.1-2.6 0 1.9-1 5.2-2.2 7.1-3.2-6.1.4-12 2.3-17.1 5.6-4.2 2.6-12.9 12.8-2.1 11.1-.3.2-1.2 1.1-1.4 1.3 2.6-1 10.5-4.7 10 .2-.6 5.7-19.6 16.4-24.2 20.3 0 .7 2.8-1.3 3.4-1.6-1 1.2-2.1 2.3-3.3 3.4 0 3.1 13-6.9 12.7-6.7-1 1.1-1.5 1.3-1.4.5l2.6-2c-.2.3-.4.6-.5.9 4.1-2.8 17.9-12.9 17.1-18.8zm-6-8.2c-1.9 1.3-4 2.4-6.2 3.1 1-.7 4.4-3.1 6.2-3.1zm-11.9 9c-.8-.4-1.3-2.1 0 0zm2.8 0c-.7-.3-1.4-.7-2.1-1.2.7.2 1.4.6 2.1 1.2zm-11.3 21.1c2.2-1.5 4.5-3.2 6.8-4.5-1.9 1.7-5.7 4.7-6.8 4.5zm6.4-1c.4-.3 1.7-.7 0 0zm-8.7 5.1c1 0 8.5-6.7 10.7-8-3 2.4-6.9 6.9-10.7 8zm25.9-23.1c.5 0 0 .2 0 0zm.9-.6c-1.4-.1-2.1-.6-2-1.5.9.2 1.6.7 2 1.5zm.4-1.1c-1.7 0-2.3-.4-1.9-1.3.6.3 1.5 1 1.9 1.3z"/></svg>